<?xml version="1.0" encoding="UTF-8" standalone="no"?>
<svg
   xmlns:dc="http://purl.org/dc/elements/1.1/"
   xmlns:cc="http://creativecommons.org/ns#"
   xmlns:rdf="http://www.w3.org/1999/02/22-rdf-syntax-ns#"
   xmlns:svg="http://www.w3.org/2000/svg"
   xmlns="http://www.w3.org/2000/svg"
   xmlns:sodipodi="http://sodipodi.sourceforge.net/DTD/sodipodi-0.dtd"
   xmlns:inkscape="http://www.inkscape.org/namespaces/inkscape"
   version="1"
   viewBox="0 0 32 40"
   enable-background="new 0 0 48 48"
   id="svg2"
   inkscape:version="0.91 r13725"
   sodipodi:docname="doublehelix.svg"
   width="32"
   height="40">
  <metadata
     id="metadata28">
    <rdf:RDF>
      <cc:Work
         rdf:about="">
        <dc:format>image/svg+xml</dc:format>
        <dc:type
           rdf:resource="http://purl.org/dc/dcmitype/StillImage" />
        <dc:title></dc:title>
      </cc:Work>
    </rdf:RDF>
  </metadata>
  <defs
     id="defs26" />
  <sodipodi:namedview
     pagecolor="#ffffff"
     bordercolor="#666666"
     borderopacity="1"
     objecttolerance="10"
     gridtolerance="10"
     guidetolerance="10"
     inkscape:pageopacity="0"
     inkscape:pageshadow="2"
     inkscape:window-width="1371"
     inkscape:window-height="897"
     id="namedview24"
     showgrid="false"
     inkscape:zoom="4.9166667"
     inkscape:cx="18.826913"
     inkscape:cy="24"
     inkscape:window-x="197"
     inkscape:window-y="68"
     inkscape:window-maximized="0"
     inkscape:current-layer="svg2" />
  <path
     d="M 28,0 C 28,9.3 22,13.2 15.2,17.8 8.1,22.5 0,27.8 0,40 l 4,0 C 4,29.9 10.5,25.6 17.4,21.1 24.2,16.6 32,11.4 32,0 l -4,0 z"
     id="path4"
     style="fill:#f9d423;fill-opacity:1"
     inkscape:connector-curvature="0" />
  <path
     d="M 30,37 3,37 C 2.4,37 2,36.6 2,36 2,35.4 2.4,35 3,35 l 27,0 c 0.6,0 1,0.4 1,1 0,0.6 -0.4,1 -1,1 z"
     id="path6"
     style="fill:#f9d423;fill-opacity:1"
     inkscape:connector-curvature="0" />
  <path
     d="M 28,33 4,33 C 3.4,33 3,32.6 3,32 3,31.4 3.4,31 4,31 l 24,0 c 0.6,0 1,0.4 1,1 0,0.6 -0.4,1 -1,1 z"
     id="path8"
     style="fill:#f9d423;fill-opacity:1"
     inkscape:connector-curvature="0" />
  <path
     d="M 26,29 6,29 C 5.4,29 5,28.6 5,28 5,27.4 5.4,27 6,27 l 20,0 c 0.6,0 1,0.4 1,1 0,0.6 -0.4,1 -1,1 z"
     id="path10"
     style="fill:#f9d423;fill-opacity:1"
     inkscape:connector-curvature="0" />
  <path
     d="m 21,25 -10,0 c -0.6,0 -1,-0.4 -1,-1 0,-0.6 0.4,-1 1,-1 l 10,0 c 0.6,0 1,0.4 1,1 0,0.6 -0.4,1 -1,1 z"
     id="path12"
     style="fill:#f9d423;fill-opacity:1"
     inkscape:connector-curvature="0" />
  <path
     d="M 29,5 2,5 C 1.4,5 1,4.6 1,4 1,3.4 1.4,3 2,3 l 27,0 c 0.6,0 1,0.4 1,1 0,0.6 -0.4,1 -1,1 z"
     id="path14"
     style="fill:#ffffff;fill-opacity:1"
     inkscape:connector-curvature="0" />
  <path
     d="M 28,9 4,9 C 3.4,9 3,8.6 3,8 3,7.4 3.4,7 4,7 l 24,0 c 0.6,0 1,0.4 1,1 0,0.6 -0.4,1 -1,1 z"
     id="path16"
     style="fill:#ffffff;fill-opacity:1"
     inkscape:connector-curvature="0" />
  <path
     d="M 26,13 6,13 C 5.4,13 5,12.6 5,12 5,11.4 5.4,11 6,11 l 20,0 c 0.6,0 1,0.4 1,1 0,0.6 -0.4,1 -1,1 z"
     id="path18"
     style="fill:#ffffff;fill-opacity:1"
     inkscape:connector-curvature="0" />
  <path
     d="m 21,17 -10,0 c -0.6,0 -1,-0.4 -1,-1 0,-0.6 0.4,-1 1,-1 l 10,0 c 0.6,0 1,0.4 1,1 0,0.6 -0.4,1 -1,1 z"
     id="path20"
     style="fill:#ffffff;fill-opacity:1"
     inkscape:connector-curvature="0" />
  <path
     d="m 32,40 -4,0 C 28,29.9 21.5,25.6 14.6,21.1 7.8,16.6 0,11.4 0,0 L 4,0 C 4,9.3 10,13.2 16.8,17.8 23.9,22.5 32,27.8 32,40 Z"
     id="path22"
     style="fill:#ffffff;fill-opacity:1"
     inkscape:connector-curvature="0" />
</svg>
