<?xml version="1.0" encoding="UTF-8" standalone="no"?>
<svg
   xmlns:dc="http://purl.org/dc/elements/1.1/"
   xmlns:cc="http://creativecommons.org/ns#"
   xmlns:rdf="http://www.w3.org/1999/02/22-rdf-syntax-ns#"
   xmlns:svg="http://www.w3.org/2000/svg"
   xmlns="http://www.w3.org/2000/svg"
   xml:space="preserve"
   enable-background="new 0 0 500 500"
   viewBox="0 0 130 35"
   height="35"
   width="130"
   y="0px"
   x="0px"
   id="Layer_1"
   version="1.1"><metadata
     id="metadata267"><rdf:RDF><cc:Work
         rdf:about=""><dc:format>image/svg+xml</dc:format><dc:type
           rdf:resource="http://purl.org/dc/dcmitype/StillImage" /><dc:title></dc:title></cc:Work></rdf:RDF></metadata><defs
     id="defs265" /><g
     style="fill:#ffffff"
     transform="translate(-17.909,-18.1155)"
     id="g3"><polygon
       style="fill:#ffffff"
       id="polygon5"
       points="128.584,20 128.584,25.097 140.721,25.097 140.721,37.233 145.818,37.233 145.818,25.097 145.818,20 140.721,20 " /><g
       style="fill:#ffffff"
       id="g7"><path
         style="fill:#ffffff"
         id="path9"
         d="m 20,26.599 7.252,0 10.298,16.832 0.068,0 0,-16.832 5.337,0 0,24.221 -6.979,0 -10.571,-17.242 -0.067,0 0,17.242 -5.338,0 0,-24.221 z" /><path
         style="fill:#ffffff"
         id="path11"
         d="m 61.011,47.947 c -1.642,2.086 -4.345,3.283 -7.013,3.283 -5.131,0 -9.237,-3.421 -9.237,-8.724 0,-5.303 4.106,-8.724 9.237,-8.724 4.79,0 7.8,3.421 7.8,8.724 l 0,1.608 -11.905,0 c 0.411,1.949 1.882,3.216 3.866,3.216 1.677,0 2.806,-0.855 3.661,-2.019 l 3.591,2.636 z m -4.345,-7.322 c 0.035,-1.71 -1.3,-3.146 -3.147,-3.146 -2.257,0 -3.489,1.539 -3.626,3.146 l 6.773,0 z" /><path
         style="fill:#ffffff"
         id="path13"
         d="m 79.692,50.82 -4.927,0 0,-2.258 -0.068,0 c -0.684,1.3 -2.36,2.668 -4.857,2.668 -5.2,0 -6.158,-3.421 -6.158,-7.868 l 0,-9.168 5.132,0 0,8.142 c 0,1.916 0.034,4.379 2.668,4.379 2.669,0 3.079,-2.087 3.079,-4.242 l 0,-8.279 5.132,0 -0.001,16.626 0,0 z" /><path
         style="fill:#ffffff"
         id="path15"
         d="m 97.644,47.947 c -1.642,2.086 -4.345,3.283 -7.013,3.283 -5.132,0 -9.237,-3.421 -9.237,-8.724 0,-5.303 4.105,-8.724 9.237,-8.724 4.789,0 7.8,3.421 7.8,8.724 l 0,1.608 -11.906,0 c 0.41,1.949 1.881,3.216 3.865,3.216 1.678,0 2.806,-0.855 3.661,-2.019 l 3.593,2.636 z m -4.345,-7.322 c 0.035,-1.71 -1.3,-3.146 -3.147,-3.146 -2.258,0 -3.488,1.539 -3.626,3.146 l 6.773,0 z" /><path
         style="fill:#ffffff"
         id="path17"
         d="m 117.943,50.82 -4.721,0 0,-2.189 -0.068,0 c -0.786,1.197 -2.771,2.6 -5.098,2.6 -4.926,0 -8.176,-3.558 -8.176,-8.586 0,-4.619 2.873,-8.862 7.594,-8.862 2.121,0 4.105,0.582 5.271,2.19 l 0.067,0 0,-11.016 5.131,0 0,25.863 z m -8.826,-12.521 c -2.566,0 -4.105,1.711 -4.105,4.208 0,2.497 1.539,4.208 4.105,4.208 2.565,0 4.104,-1.711 4.104,-4.208 0,-2.497 -1.537,-4.208 -4.104,-4.208 z" /><path
         style="fill:#ffffff"
         id="path19"
         d="m 131.072,48.732 -0.067,0 c -1.129,1.779 -3.183,2.498 -5.271,2.498 -3.112,0 -5.918,-1.778 -5.918,-5.131 0,-5.748 6.979,-5.851 11.256,-5.851 0,-1.813 -1.506,-2.977 -3.284,-2.977 -1.677,0 -3.078,0.753 -4.175,1.984 l -2.735,-2.805 c 1.881,-1.779 4.619,-2.669 7.319,-2.669 5.987,0 7.597,3.045 7.597,8.587 l 0,8.45 -4.722,0 0,-2.086 0,0 z m -1.266,-5.199 c -1.573,0 -5.062,0.137 -5.062,2.395 0,1.232 1.301,1.813 2.43,1.813 2.018,0 3.899,-1.06 3.899,-3.113 l 0,-1.095 -1.267,0 z" /><g
         style="fill:#ffffff"
         id="g21"><path
           style="fill:#ffffff"
           id="path23"
           d="m 140.051,47.42 0,0.416 -1.179,0 0,3.078 -0.479,0 0,-3.078 -1.178,0 0,-0.416 2.836,0 z" /><path
           style="fill:#ffffff"
           id="path25"
           d="m 140.377,47.42 0.678,0 1.005,2.954 0.998,-2.954 0.673,0 0,3.494 -0.451,0 0,-2.062 c 0,-0.071 0.001,-0.189 0.005,-0.354 0.004,-0.165 0.006,-0.342 0.006,-0.53 l -0.998,2.947 -0.471,0 -1.007,-2.947 0,0.107 c 0,0.085 0.002,0.215 0.007,0.391 0.006,0.176 0.008,0.305 0.008,0.387 l 0,2.062 -0.451,0 -0.002,-3.495 0,0 z" /></g></g></g></svg>