<?xml version="1.0" encoding="UTF-8" standalone="no"?>
<!-- Generator: Adobe Illustrator 16.0.0, SVG Export Plug-In . SVG Version: 6.00 Build 0) -->

<svg
   xmlns:dc="http://purl.org/dc/elements/1.1/"
   xmlns:cc="http://creativecommons.org/ns#"
   xmlns:rdf="http://www.w3.org/1999/02/22-rdf-syntax-ns#"
   xmlns:svg="http://www.w3.org/2000/svg"
   xmlns="http://www.w3.org/2000/svg"
   xmlns:sodipodi="http://sodipodi.sourceforge.net/DTD/sodipodi-0.dtd"
   xmlns:inkscape="http://www.inkscape.org/namespaces/inkscape"
   version="1.1"
   id="Layer_1"
   x="0px"
   y="0px"
   width="290.82901"
   height="380"
   viewBox="6.527 4.399 290.829 380"
   xml:space="preserve"
   inkscape:version="0.91 r13725"
   sodipodi:docname="java-4.svg"><metadata
     id="metadata33"><rdf:RDF><cc:Work
         rdf:about=""><dc:format>image/svg+xml</dc:format><dc:type
           rdf:resource="http://purl.org/dc/dcmitype/StillImage" /><dc:title></dc:title></cc:Work></rdf:RDF></metadata><defs
     id="defs31" /><sodipodi:namedview
     pagecolor="#ffffff"
     bordercolor="#666666"
     borderopacity="1"
     objecttolerance="10"
     gridtolerance="10"
     guidetolerance="10"
     inkscape:pageopacity="0"
     inkscape:pageshadow="2"
     inkscape:window-width="1302"
     inkscape:window-height="910"
     id="namedview29"
     showgrid="false"
     inkscape:zoom="0.43630501"
     inkscape:cx="-76.13869"
     inkscape:cy="270.453"
     inkscape:window-x="138"
     inkscape:window-y="52"
     inkscape:window-maximized="0"
     inkscape:current-layer="Layer_1" /><path
     style="fill:#5382a1"
     d="m 102.681,296.41799 c 0,0 -14.178,8.245 10.09,11.035 29.4,3.354 44.426,2.873 76.825,-3.259 0,0 8.518,5.341 20.414,9.967 -72.63,31.128 -164.376,-1.803 -107.329,-17.743"
     id="path5"
     inkscape:connector-curvature="0" /><path
     style="fill:#5382a1"
     d="m 93.806,255.79799 c 0,0 -15.902,11.771 8.384,14.283 31.406,3.24 56.208,3.505 99.125,-4.759 0,0 5.937,6.018 15.271,9.309 -87.815,25.678 -185.624,2.025 -122.78,-18.833"
     id="path7"
     inkscape:connector-curvature="0" /><path
     style="fill:#e76f00"
     d="m 168.625,186.89299 c 17.896,20.604 -4.701,39.146 -4.701,39.146 0,0 45.439,-23.458 24.571,-52.833 -19.491,-27.395 -34.438,-41.005 46.479,-87.933996 0.001,-0.001 -127.013,31.720996 -66.349,101.620996"
     id="path9"
     inkscape:connector-curvature="0" /><path
     style="fill:#5382a1"
     d="m 264.684,326.46299 c 0,0 10.492,8.646 -11.555,15.333 -41.923,12.7 -174.488,16.535 -211.314,0.507 -13.238,-5.76 11.587,-13.752 19.396,-15.429 8.144,-1.766 12.798,-1.437 12.798,-1.437 -14.722,-10.371 -95.157,20.363 -40.857,29.166 148.084,24.015 269.944,-10.814 231.532,-28.14"
     id="path11"
     inkscape:connector-curvature="0" /><path
     style="fill:#5382a1"
     d="m 109.499,213.71099 c 0,0 -67.431,16.016 -23.879,21.832 18.389,2.462 55.047,1.905 89.192,-0.956 27.906,-2.354 55.928,-7.358 55.928,-7.358 0,0 -9.84,4.214 -16.959,9.074 -68.475,18.01 -200.756,9.631 -162.674,-8.79 32.206,-15.568 58.392,-13.802 58.392,-13.802"
     id="path13"
     inkscape:connector-curvature="0" /><path
     style="fill:#5382a1"
     d="m 230.462,281.32499 c 69.608,-36.171 37.425,-70.932 14.96,-66.248 -5.506,1.146 -7.961,2.139 -7.961,2.139 0,0 2.045,-3.202 5.947,-4.588 44.441,-15.624 78.619,46.081 -14.346,70.521 0,0 1.079,-0.962 1.4,-1.824"
     id="path15"
     inkscape:connector-curvature="0" /><path
     style="fill:#e76f00"
     d="m 188.495,9.49299 c 0,0 38.55,38.562 -36.563,97.862 -60.233,47.567 -13.735,74.689 -0.025,105.678 -35.158,-31.723 -60.96,-59.647 -43.65,-85.637 25.406,-38.150996 95.792,-56.648 80.238,-117.903"
     id="path17"
     inkscape:connector-curvature="0" /><path
     style="fill:#5382a1"
     d="m 116.339,379.33999 c 66.815,4.277 169.417,-2.373 171.846,-33.987 0,0 -4.67,11.984 -55.219,21.503 -57.027,10.731 -127.364,9.479 -169.081,2.601 0.002,-0.002 8.541,7.067 52.454,9.883"
     id="path19"
     inkscape:connector-curvature="0" /></svg>