<?xml version="1.0" encoding="UTF-8" standalone="no"?>
<!-- Generator: Adobe Illustrator 16.0.0, SVG Export Plug-In . SVG Version: 6.00 Build 0) -->

<svg
   xmlns:dc="http://purl.org/dc/elements/1.1/"
   xmlns:cc="http://creativecommons.org/ns#"
   xmlns:rdf="http://www.w3.org/1999/02/22-rdf-syntax-ns#"
   xmlns:svg="http://www.w3.org/2000/svg"
   xmlns="http://www.w3.org/2000/svg"
   xmlns:sodipodi="http://sodipodi.sourceforge.net/DTD/sodipodi-0.dtd"
   xmlns:inkscape="http://www.inkscape.org/namespaces/inkscape"
   version="1.1"
   id="svg2"
   sodipodi:docname="jenkins.svg"
   inkscape:version="0.91 r13725"
   x="0px"
   y="0px"
   width="226"
   height="311.85599"
   viewBox="10 10 226 311.856"
   xml:space="preserve"><metadata
     id="metadata83"><rdf:RDF><cc:Work
         rdf:about=""><dc:format>image/svg+xml</dc:format><dc:type
           rdf:resource="http://purl.org/dc/dcmitype/StillImage" /><dc:title></dc:title></cc:Work></rdf:RDF></metadata><defs
     id="defs81" /><sodipodi:namedview
     fit-margin-left="10"
     guidetolerance="10"
     fit-margin-top="10"
     objecttolerance="10"
     gridtolerance="10"
     pagecolor="#ffffff"
     bordercolor="#666666"
     borderopacity="1"
     id="namedview4"
     showgrid="false"
     inkscape:zoom="1"
     inkscape:cx="260"
     inkscape:cy="182.53093"
     inkscape:window-y="73"
     inkscape:pageopacity="0"
     inkscape:pageshadow="2"
     inkscape:window-width="1689"
     inkscape:window-maximized="0"
     inkscape:window-x="137"
     inkscape:window-height="866"
     inkscape:current-layer="g10"
     fit-margin-right="10"
     fit-margin-bottom="10" /><g
     id="g10"
     transform="matrix(1.25,0,0,-1.25,10,321.85516)"
     inkscape:groupmode="layer"
     inkscape:label="ink_ext_XXXXXX"><g
       id="g3393"><path
         id="path22"
         inkscape:connector-curvature="0"
         style="fill:#d33833"
         d="m 177.718,129.264 c 0,-49.429 -39.175,-89.499 -87.5,-89.499 -48.324,0 -87.499,40.07 -87.499,89.499 0,49.43 39.175,89.501 87.499,89.501 48.325,0 87.5,-40.071 87.5,-89.501" /><path
         id="path24"
         inkscape:connector-curvature="0"
         style="fill:#ef3d3a"
         d="m 6.285,107.098 c 0,0 -6.334,93.334 79.666,96 l -5.999,10 -46.666,-15.666 -13.334,-15.334 -11.667,-22.334 -6.667,-26 2,-17.333" /><path
         id="path26"
         inkscape:connector-curvature="0"
         style="fill:#231f20"
         d="M 30.288,190.319 C 14.936,174.611 5.436,152.923 5.436,128.93 l 0,0 c 0,-23.987 9.5,-45.678 24.852,-61.384 l 0,0 C 45.648,51.841 66.815,42.15 90.217,42.15 l 0,0 c 23.402,0 44.571,9.691 59.93,25.396 l 0,0 c 15.351,15.705 24.852,37.396 24.852,61.384 l 0,0 c 0,23.993 -9.502,45.681 -24.852,61.389 l 0,0 c -15.359,15.702 -36.527,25.393 -59.93,25.395 l 0,0 C 66.815,215.712 45.648,206.021 30.288,190.319 l 0,0 z M 26.403,63.747 C 10.087,80.433 0,103.493 0,128.93 l 0,0 c 0,25.441 10.087,48.499 26.402,65.186 l 0,0 c 16.312,16.691 38.891,27.035 63.814,27.032 l 0,0 c 24.923,0.003 47.505,-10.341 63.814,-27.032 l 0,0 c 16.317,-16.687 26.406,-39.747 26.403,-65.186 l 0,0 C 180.435,103.493 170.347,80.433 154.03,63.747 l 0,0 C 137.721,47.058 115.139,36.714 90.216,36.714 l 0,0 c -24.922,0 -47.502,10.344 -63.813,27.033 l 0,0" /><path
         id="path28"
         inkscape:connector-curvature="0"
         style="fill:#f0d6b7"
         d="m 127.051,128.768 -13.334,-2 -18,-2 -11.667,-0.333 -11.333,0.333 -8.667,2.667 -7.666,8.333 -6,17 -1.334,3.667 -8,2.666 -4.666,7.667 -3.334,11 3.667,9.667 8.667,3 7,-3.334 3.333,-7.333 4,0.667 1.333,1.666 -1.333,7.667 -0.333,9.667 2,13.333 -0.078,7.616 6.078,9.716 10.666,7.667 18.667,8 20.667,-3 18,-13 8.333,-13.333 5.334,-9.667 1.333,-24 -4,-20.667 -7.333,-18.333 -7,-9.667" /><path
         id="path30"
         inkscape:connector-curvature="0"
         style="fill:#335061"
         d="m 115.717,71.102 -47.667,-2 0,-8 4,-28 -2,-2.334 -33.333,11.334 -2.333,4 -3.334,37.666 -7.666,22.667 -1.667,5.333 26.667,18.333 8.333,3.334 7.333,-9 6.334,-5.667 7.333,-2.333 3.333,-1 4,-17.333 3,-3.667 7.667,2.667 -5.333,-10.334 29,-13.666 -3.667,-2" /><path
         id="path32"
         inkscape:connector-curvature="0"
         style="fill:#6d6b6d"
         d="m 36.717,187.435 8.667,3 7,-3.334 3.333,-7.333 4,0.667 1,4 -2,7.666 2,18.334 -1.667,10 6,7 13,10.333 -3.666,5 -18.334,-9 -7.666,-6 -4.334,-9.333 -6.666,-9 -2,-10.667 1.333,-11.333" /><path
         id="path34"
         inkscape:connector-curvature="0"
         style="fill:#dcd9d8"
         d="m 50.383,218.768 c 0,0 5,12.333 25,18.333 20,6 1,4.334 1,4.334 l -21.667,-8.334 -8.333,-8.333 -3.667,-6.667 7.667,0.667" /><path
         id="path36"
         inkscape:connector-curvature="0"
         style="fill:#dcd9d8"
         d="m 40.383,189.768 c 0,0 -7,23.334 19.666,26.667 l -1,4 -18.333,-4.334 -5.333,-17.333 1.333,-11.333 3.667,2.333" /><path
         id="path38"
         inkscape:connector-curvature="0"
         style="fill:#f7e4cd"
         d="m 51.049,158.768 4.365,4.229 c 0,0 1.969,-0.229 2.302,-2.562 0.333,-2.334 1.333,-23.334 15.667,-34.668 1.307,-1.034 -10.667,1.668 -10.667,1.668 l -10.667,16.666" /><path
         id="path40"
         inkscape:connector-curvature="0"
         style="fill:#f7e4cd"
         d="m 112.385,165.101 c 0,0 0.777,10.104 3.499,9.327 2.721,-0.777 2.721,-3.498 2.721,-3.498 0,0 -6.609,-4.275 -6.22,-5.829" /><path
         id="path42"
         inkscape:connector-curvature="0"
         style="fill:#f7e4cd"
         d="m 140.05,202.101 c 0,0 -5.495,-1.16 -6,-6 -0.506,-4.841 6,-1 7,-0.666" /><path
         id="path44"
         inkscape:connector-curvature="0"
         style="fill:#f7e4cd"
         d="m 99.717,201.767 c 0,0 -7.333,-1 -7.333,-5.666 0,-4.666 8.333,-4.334 10.667,-2.334" /><path
         id="path46"
         inkscape:connector-curvature="0"
         style="fill:#f7e4cd"
         d="m 54.383,180.101 c 0,0 -12.667,7.667 -14,0.334 -1.334,-7.334 -4.334,-12.667 2,-20.334 l -4.334,1.334 -4,10.333 -1.333,10 7.667,8.001 8.666,-0.667 5,-4 0.334,-5.001" /><path
         id="path48"
         inkscape:connector-curvature="0"
         style="fill:#f7e4cd"
         d="m 60.383,201.101 c 0,0 5.666,29.334 34.333,35 23.602,4.665 35.999,-1 40.667,-6.333 0,0 -21,24.999 -41,17.333 -20,-7.666 -34.667,-21.666 -34.334,-30.666 0.568,-15.328 0.334,-15.334 0.334,-15.334" /><path
         id="path50"
         inkscape:connector-curvature="0"
         style="fill:#f7e4cd"
         d="m 137.717,226.435 c 0,0 -9.666,0.333 -10,-8.334 0,0 -0.001,-1.333 0.667,-2.666 0,0 7.668,8.667 12.333,4" /><path
         id="path52"
         inkscape:connector-curvature="0"
         style="fill:#f7e4cd"
         d="m 95.388,214.532 c 0,0 -1.664,13.303 -13.005,5.569 -7.334,-5 -6.667,-12 -5.334,-13.333 1.334,-1.334 0.971,-4.019 1.986,-2.176 1.014,1.843 0.68,7.843 4.348,9.509 3.666,1.667 9.677,3.529 12.005,0.431" /><path
         id="path54"
         inkscape:connector-curvature="0"
         style="fill:#49728b"
         d="m 64.049,124.435 -31.333,-14 c 0,0 13,-51.667 6.333,-67.667 l -4.666,1.666 -0.334,19.667 -8.666,37.333 -3.667,10.334 32.667,21.999 9.666,-9.332" /><path
         id="path56"
         inkscape:connector-curvature="0"
         style="fill:#49728b"
         d="m 67.271,95.858 4.445,-5.423 0,-20 -5.333,0 c 0,0 -0.667,14 -0.667,15.667 0,1.666 0.667,7.666 0.667,7.666" /><path
         id="path58"
         inkscape:connector-curvature="0"
         style="fill:#49728b"
         d="m 67.383,67.434 -15,-0.666 4.333,-3 10.667,-1.666" /><path
         id="path60"
         inkscape:connector-curvature="0"
         style="fill:#335061"
         d="m 118.717,70.768 12.334,0.334 3,-30.667 -12.667,-1.666 -2.667,31.999" /><path
         id="path62"
         inkscape:connector-curvature="0"
         style="fill:#335061"
         d="m 122.05,70.768 18.666,1 c 0,0 7.667,19.334 7.667,20.334 0,1 6.667,27.999 6.667,27.999 l -15,15.666 -3,2.667 -8,-8 0,-31 -7,-28.666" /><path
         id="path64"
         inkscape:connector-curvature="0"
         style="fill:#49728b"
         d="m 130.383,73.102 -11.667,-2.334 1.667,-9.334 c 4.333,-2 11.667,3.334 11.667,3.334" /><path
         id="path66"
         inkscape:connector-curvature="0"
         style="fill:#49728b"
         d="m 130.717,131.434 23.334,-17.334 0.666,8 -17.666,16.334 -6.334,-7" /><path
         id="path68"
         inkscape:connector-curvature="0"
         style="fill:#ffffff"
         d="m 78.951,5.098 -6.901,28.005 -3.432,20.663 -0.568,15.337 31.235,1.663 19.432,0.003 -1.766,-35.003 3,-27 -0.334,-5 -25.332,-2 -15.334,3.332" /><path
         id="path70"
         inkscape:connector-curvature="0"
         style="fill:#dcd9d8"
         d="m 114.383,71.102 c 0,0 -1.667,-34.667 3.333,-59.334 0,0 -10,-6.334 -24.667,-8 l 28.001,1 3.333,2 -4,54.666 -1,11.668" /><path
         id="path72"
         inkscape:connector-curvature="0"
         style="fill:#ffffff"
         d="m 134.618,43.098 13,3.667 24.666,1.333 3.667,11.334 -6.667,19.666 -7.666,1 -10.667,-3.333 -10.234,-4.997 -5.433,0.997 -4.234,-1.663" /><path
         id="path74"
         inkscape:connector-curvature="0"
         style="fill:#dcd9d8"
         d="m 134.383,49.768 c 0,0 8.666,3.999 10,3.666 l -3.667,18.334 4.334,1.666 c 0,0 3,-17.333 3,-19.333 0,0 18.666,-1 20.333,-1 0,0 4,7.666 3,15.666 l 3.667,-10.666 0.333,-6 -5.333,-8 -6,-1.334 -10,0.334 -3.334,4.333 -11.666,-1.666 -3.667,-1.334" /><path
         id="path76"
         inkscape:connector-curvature="0"
         style="fill:#ffffff"
         d="m 121.284,73.431 -7.333,18.666 -7.667,11 c 0,0 1.666,4.667 4,4.667 2.334,0 7.667,0 7.667,0 l 7.333,-2.667 -0.666,-12.333 -3.334,-19.333" /><path
         id="path78"
         inkscape:connector-curvature="0"
         style="fill:#dcd9d8"
         d="m 122.717,79.768 c 0,0 -9.333,17.999 -9.333,20.666 0,0 1.666,4 4,3 2.333,-1 7.333,-3.666 7.333,-3.666 l 0,6.333 -11.333,2.334 -7.667,-1 13,-30.667 2.667,-0.334" /><path
         id="path80"
         inkscape:connector-curvature="0"
         style="fill:#ffffff"
         d="m 81.951,123.764 -9.234,1.004 -8.667,2.667 0,-3 4.235,-4.67 13.333,-6" /><path
         id="path82"
         inkscape:connector-curvature="0"
         style="fill:#dcd9d8"
         d="m 67.051,122.765 c 0,0 10.333,-4.334 13.667,-3.334 l 0.331,-3.996 -9.331,1.996 -5.667,4 1,1.334" /><path
         id="path84"
         inkscape:connector-curvature="0"
         style="fill:#d33833"
         d="m 134.582,106.63 c -5.656,0.166 -10.766,0.838 -15.241,2.1 0.305,1.834 -0.265,3.634 0.192,4.956 1.247,0.898 3.338,0.884 5.222,1.094 -1.63,0.802 -3.919,1.118 -5.801,0.656 -0.044,1.273 -0.615,2.062 -0.961,3.058 3.18,1.135 10.687,8.576 14.91,6.112 2.012,-1.172 2.867,-7.866 3.023,-11.12 0.131,-2.702 -0.244,-5.426 -1.344,-6.856" /><path
         id="path86"
         inkscape:connector-curvature="0"
         style="fill:none;stroke:#d33833;stroke-width:2"
         d="m 134.582,106.63 c -5.656,0.166 -10.766,0.838 -15.241,2.1 0.305,1.834 -0.265,3.634 0.192,4.956 1.247,0.898 3.338,0.884 5.222,1.094 -1.63,0.802 -3.919,1.118 -5.801,0.656 -0.044,1.273 -0.615,2.062 -0.961,3.058 3.18,1.135 10.687,8.576 14.91,6.112 2.012,-1.172 2.867,-7.866 3.023,-11.12 0.131,-2.702 -0.244,-5.426 -1.344,-6.856 z" /><path
         id="path88"
         inkscape:connector-curvature="0"
         style="fill:#d33833"
         d="m 107.535,115.876 c -0.015,-0.428 -0.033,-0.859 -0.05,-1.291 -1.766,-1.16 -4.616,-1.146 -6.555,-2.121 2.857,-0.125 5.106,-0.813 7.052,-1.783 -0.043,-1.078 -0.084,-2.156 -0.126,-3.234 -3.237,-2.216 -6.194,-5.516 -10.005,-7.594 -1.802,-0.983 -8.127,-3.512 -10.044,-3.065 -1.084,0.252 -1.182,1.598 -1.616,2.867 -0.924,2.716 -3.051,7.041 -3.237,11.132 -0.236,5.166 -0.758,13.823 4.809,12.759 4.491,-0.856 9.716,-2.926 13.193,-4.826 2.126,-1.16 3.355,-2.596 6.579,-2.844" /><path
         id="path90"
         inkscape:connector-curvature="0"
         style="fill:none;stroke:#d33833;stroke-width:2"
         d="m 107.535,115.876 c -0.015,-0.428 -0.033,-0.859 -0.05,-1.291 -1.766,-1.16 -4.616,-1.146 -6.555,-2.121 2.857,-0.125 5.106,-0.813 7.052,-1.783 -0.043,-1.078 -0.084,-2.156 -0.126,-3.234 -3.237,-2.216 -6.194,-5.516 -10.005,-7.594 -1.802,-0.983 -8.127,-3.512 -10.044,-3.065 -1.084,0.252 -1.182,1.598 -1.616,2.867 -0.924,2.716 -3.051,7.041 -3.237,11.132 -0.236,5.166 -0.758,13.823 4.809,12.759 4.491,-0.856 9.716,-2.926 13.193,-4.826 2.126,-1.16 3.355,-2.596 6.579,-2.844 z" /><path
         id="path92"
         inkscape:connector-curvature="0"
         style="fill:#d33833"
         d="m 110.75,109.712 c -0.495,2.814 -1.066,3.617 -0.845,6.073 7.506,5.003 8.915,-8.596 0.845,-6.073" /><path
         id="path94"
         inkscape:connector-curvature="0"
         style="fill:none;stroke:#d33833;stroke-width:2"
         d="m 110.75,109.712 c -0.495,2.814 -1.066,3.617 -0.845,6.073 7.506,5.003 8.915,-8.596 0.845,-6.073 z" /><path
         id="path96"
         inkscape:connector-curvature="0"
         style="fill:#ef3d3a"
         d="m 121.617,107.431 c 0,0 -2.334,3.334 -0.666,4.334 1.666,1 3.334,-0.001 4.334,1.666 1,1.666 0,2.666 0.333,4.666 0.334,2 2.002,2.334 3.667,2.667 1.666,0.333 6.334,1 7,-0.667 l -2,6 -4,1.334 -12.667,-7.334 -0.666,-3.666 0,-7.334" /><path
         id="path98"
         inkscape:connector-curvature="0"
         style="fill:#ef3d3a"
         d="m 86.617,96.431 c -0.401,5.202 -0.824,10.397 -1.296,15.594 -0.705,7.76 1.864,6.406 8.591,6.406 1.027,0 6.326,-1.225 6.705,-2 1.818,-3.713 -3.04,-2.888 2.095,-5.688 4.333,-2.363 11.99,1.435 10.239,6.688 -0.98,1.168 -5.106,0.364 -6.585,1.13 -2.604,1.35 -5.208,2.7 -7.812,4.05 -3.313,1.72 -10.97,4.225 -14.503,1.823 -8.95,-6.088 0.565,-21.296 3.758,-27.646" /><path
         id="path100"
         inkscape:connector-curvature="0"
         style="fill:#231f20"
         d="m 95.388,214.532 c -9.085,2.116 -13.599,-3.802 -16.353,-9.94 -2.459,0.596 -1.48,3.94 -0.859,5.644 1.626,4.472 8.18,10.425 13.534,9.618 2.304,-0.347 5.423,-2.454 3.678,-5.322" /><path
         id="path102"
         inkscape:connector-curvature="0"
         style="fill:#231f20"
         d="m 139.655,204.186 c 0.143,-0.006 0.288,-0.011 0.431,-0.017 2.053,-4.265 3.83,-8.783 6.419,-12.548 -1.734,-4.041 -13.137,-7.617 -12.962,-0.361 2.466,1.078 6.723,0.22 8.909,1.597 -1.263,3.469 -3.087,6.422 -2.797,11.329" /><path
         id="path104"
         inkscape:connector-curvature="0"
         style="fill:#231f20"
         d="m 100.04,204.075 c 1.948,-3.571 2.582,-7.323 5.351,-10.022 1.247,-1.215 3.672,-2.696 2.47,-6.075 -0.281,-0.797 -2.334,-2.574 -3.52,-2.923 -4.329,-1.277 -14.416,-0.264 -11,5.134 3.581,-0.167 8.392,-2.325 11.068,0.273 -2.054,3.285 -5.717,9.784 -4.369,13.613" /><path
         id="path106"
         inkscape:connector-curvature="0"
         style="fill:#231f20"
         d="m 138.03,167.781 c -6.518,-4.188 -13.786,-8.74 -24.466,-7.684 -2.282,1.984 -3.152,6.399 -0.935,9.315 1.154,-1.984 0.429,-5.633 3.645,-6.182 6.06,-1.037 13.113,3.707 17.473,5.366 2.702,4.557 -0.234,6.233 -2.669,9.166 -4.984,6.009 -11.672,13.457 -11.429,22.453 2.016,1.461 2.189,-2.23 2.478,-2.902 2.603,-6.091 9.154,-13.883 13.935,-19.097 1.174,-1.284 3.107,-2.516 3.322,-3.365 0.62,-2.47 -1.613,-5.428 -1.354,-7.07" /><path
         id="path108"
         inkscape:connector-curvature="0"
         style="fill:#231f20"
         d="m 52.102,172.189 c -2.043,1.166 -2.53,6.302 -4.928,6.448 -3.427,0.209 -2.802,-6.662 -2.789,-10.68 -2.359,2.141 -2.774,8.737 -1.041,12.123 -1.976,0.97 -2.858,-1.07 -3.953,-1.789 1.408,10.23 14.965,4.745 12.711,-6.102" /><path
         id="path110"
         inkscape:connector-curvature="0"
         style="fill:#231f20"
         d="m 142.18,163.521 c -3.034,-5.775 -7.326,-12.135 -16.229,-12.32 -0.181,1.865 -0.32,4.703 0.01,5.827 6.806,0.653 11.008,4.117 16.219,6.493" /><path
         id="path112"
         inkscape:connector-curvature="0"
         style="fill:#231f20"
         d="m 99.527,159.777 c 5.678,-2.987 16.114,-3.307 23.832,-3.081 0.414,-1.691 0.404,-3.78 0.42,-5.842 -9.921,-0.495 -21.651,1.96 -24.252,8.923" /><path
         id="path114"
         inkscape:connector-curvature="0"
         style="fill:#231f20"
         d="m 98.447,154.209 c 3.927,-9.859 17.423,-8.724 28.804,-8.452 -0.501,-1.28 -1.587,-2.792 -2.937,-3.339 -3.648,-1.484 -13.706,-2.61 -18.77,0.079 -3.211,1.707 -5.273,5.564 -7.033,7.825 -0.849,1.092 -5.08,3.881 -0.064,3.887" /><path
         id="path116"
         inkscape:connector-curvature="0"
         style="fill:#81b0c4"
         d="m 137.556,99.827 c -4.608,-7.892 -9.016,-15.998 -14.484,-22.959 2.292,6.739 3.273,18.018 3.619,26.617 4.795,2.243 8.901,-0.506 10.865,-3.658" /><path
         id="path118"
         inkscape:connector-curvature="0"
         style="fill:#231f20"
         d="m 162.352,71.461 c -5.159,-1.033 -8.784,-6.047 -13.817,-5.725 2.766,3.899 7.613,5.543 13.817,5.725" /><path
         id="path120"
         inkscape:connector-curvature="0"
         style="fill:#231f20"
         d="m 164.628,63.387 c -4.205,-0.445 -9.144,-1.125 -13.409,-0.774 2.019,3.084 9.798,2.02 13.409,0.774" /><path
         id="path122"
         inkscape:connector-curvature="0"
         style="fill:#231f20"
         d="m 166.085,56.426 c -4.726,-0.103 -10.6,-0.009 -15.091,0.368 2.656,2.854 12.026,1.06 15.091,-0.368" /><path
         id="path124"
         inkscape:connector-curvature="0"
         style="fill:#dcd9d8"
         d="m 128.664,37.377 c 0.677,-5.935 3.03,-11.949 2.736,-18.449 -2.613,-0.881 -4.114,-1.652 -7.616,-1.648 -0.247,5.525 -0.986,13.97 -0.765,19.236 1.723,-0.114 4.262,1.23 5.645,0.861" /><path
         id="path126"
         inkscape:connector-curvature="0"
         style="fill:#f0d6b7"
         d="m 121.045,124.849 c -2.373,-1.549 -4.394,-3.484 -6.673,-5.138 -5.054,-0.25 -7.812,0.35 -11.525,3.252 0.061,0.233 0.434,0.129 0.448,0.415 5.41,-2.41 12.287,0.983 17.75,1.471" /><path
         id="path128"
         inkscape:connector-curvature="0"
         style="fill:#81b0c4"
         d="m 92.645,87.971 c 1.486,6.441 7.31,9.777 12.599,13.324 5.459,-6.928 8.779,-15.838 12.435,-24.436 -8.638,2.604 -17.464,6.829 -25.034,11.112" /><path
         id="path130"
         inkscape:connector-curvature="0"
         style="fill:#231f20"
         d="m 123.02,36.516 c -0.221,-5.266 0.518,-13.711 0.765,-19.236 3.502,-0.005 5.002,0.766 7.616,1.648 0.295,6.5 -2.059,12.514 -2.736,18.449 -1.384,0.369 -3.923,-0.975 -5.645,-0.861 z M 68.506,66.465 c 2.309,-21.223 5.652,-39.063 11.785,-57.857 13.612,-4.133 30.02,-4.493 42.051,-0.764 -2.208,10.607 -1.244,23.521 -2.534,34.841 -0.974,8.508 -0.477,17.068 -1.811,25.748 -14.579,3.032 -35.184,0.708 -49.491,-1.968 z m 52.937,1.833 c -0.123,-9.114 0.408,-18.105 1.104,-27.231 3.5,0.525 5.875,0.876 9.126,1.589 -1.055,8.786 -0.926,18.672 -3.077,26.444 -2.485,-0.023 -4.674,0.029 -7.153,-0.802 z m 17.755,1.47 c -1.661,0.38 -3.595,0.015 -5.182,-0.016 0.746,-7.43 2.556,-15.63 3.193,-23.429 2.497,-0.077 3.831,1.1 5.885,1.497 0.11,6.846 -0.599,16.278 -3.896,21.948 z m 26.884,-24.563 c 5.205,1.263 8.477,7.638 7.022,14.186 -0.977,4.4 -2.717,12.685 -4.579,15.5 -1.376,2.081 -5.107,4.807 -8.086,2.9 -4.846,-3.103 -13.384,-4.004 -16.917,-7.76 1.772,-5.9 2.322,-14.004 3.053,-21.48 6.054,-0.378 13.502,1.666 18.537,-0.503 -3.515,-1.138 -8.076,-1.147 -11.112,-2.806 2.482,-1.199 8.293,-0.957 12.082,-0.037 l 0,0 z m -48.403,31.654 c -3.656,8.598 -6.977,17.508 -12.435,24.436 -5.289,-3.548 -11.113,-6.883 -12.599,-13.324 7.57,-4.283 16.396,-8.508 25.034,-11.112 z m 9.012,26.625 c -0.346,-8.599 -1.327,-19.878 -3.619,-26.617 5.467,6.961 9.876,15.067 14.484,22.959 -1.964,3.153 -6.07,5.902 -10.865,3.658 z m -10.216,3.63 c -2.071,0.223 -3.829,-2.381 -6.523,-1.255 -0.616,-0.682 -1.177,-1.421 -1.806,-2.088 5.948,-7.168 8.651,-17.337 13.245,-25.762 2.465,8.092 2.181,16.957 2.724,25.789 -3.387,-0.214 -5.266,3.064 -7.64,3.316 z m -6.569,8.67 c -0.221,-2.455 0.35,-3.259 0.845,-6.073 8.069,-2.522 6.66,11.077 -0.845,6.073 z m -8.949,2.938 c -3.477,1.9 -8.702,3.97 -13.193,4.826 -5.567,1.066 -5.045,-7.594 -4.809,-12.759 0.186,-4.091 2.312,-8.416 3.237,-11.132 0.434,-1.269 0.531,-2.615 1.616,-2.867 1.917,-0.447 8.241,2.082 10.044,3.065 3.811,2.078 6.768,5.378 10.005,7.594 0.042,1.078 0.083,2.156 0.126,3.234 -1.946,0.969 -4.195,1.658 -7.052,1.783 1.938,0.975 4.789,0.961 6.555,2.121 0.017,0.432 0.035,0.862 0.05,1.291 -3.225,0.246 -4.454,1.682 -6.579,2.844 z m -33.214,6.033 c -2.886,-2.93 8.094,-6.923 11.591,-7.139 -0.02,1.855 1.057,3.602 0.84,4.932 -4.153,0.729 -9.61,0.248 -12.431,2.207 z m 35.552,-1.376 c -0.014,-0.286 -0.387,-0.182 -0.448,-0.415 3.713,-2.902 6.471,-3.502 11.525,-3.252 2.279,1.654 4.3,3.588 6.673,5.138 -5.463,-0.489 -12.34,-3.882 -17.75,-1.471 z m 32.632,-9.895 c -0.156,3.255 -1.011,9.948 -3.023,11.12 -4.223,2.466 -11.73,-4.977 -14.91,-6.112 0.346,-0.996 0.917,-1.785 0.961,-3.058 1.881,0.462 4.171,0.146 5.801,-0.656 -1.884,-0.211 -3.975,-0.197 -5.222,-1.094 -0.457,-1.321 0.112,-3.121 -0.192,-4.956 4.474,-1.262 9.584,-1.934 15.241,-2.1 1.099,1.432 1.474,4.156 1.344,6.856 z m -73.042,8.437 c -0.906,0.646 -7.037,8.623 -7.876,8.292 C 43.915,125.838 33.542,118.272 24.272,111.118 33.11,92.154 36.678,68.92 37.308,46.527 47.432,41.792 56.325,34.965 70.063,34.253 c -1.59,11.248 -3.042,21.283 -3.944,31.873 -3.452,1.455 -8.404,-0.066 -11.634,0.452 -0.027,3.892 4.934,1.705 5.347,4.322 0.311,1.98 -2.73,2.13 -1.74,5.248 2.526,-0.918 3.852,-2.945 6.545,-3.707 2.461,5.384 -0.034,14.91 0.32,19.41 0.067,0.845 0.422,4.681 2.314,4.008 1.675,-0.595 -0.095,-10.202 0.088,-14.461 0.167,-3.924 -0.474,-7.72 1.115,-10.184 13.276,1.807 26.766,2.975 41.13,3.369 -3.16,1.356 -6.914,2.639 -11.03,4.959 -2.231,1.257 -9.265,3.875 -9.909,5.994 -1.027,3.377 2.695,5.176 3.332,8.071 -6.701,-3.655 -8.009,3.503 -9.594,8.573 -1.436,4.593 -2.254,8.024 -2.606,10.673 -5.772,2.752 -11.944,5.539 -16.912,9.068 z m 67.179,7.327 c 9.243,4.482 10.909,-16.751 7.286,-23.591 0.559,-2.04 2.486,-2.821 3.272,-4.655 -5.158,-9.241 -10.887,-17.866 -16.15,-26.996 3.915,2.437 9.507,0.436 14.114,2.259 1.684,0.666 2.903,4.521 4.178,7.605 3.507,8.485 7.188,19.182 8.827,27.279 0.37,1.845 1.378,5.865 1.152,7.507 -0.403,2.94 -4.392,5.12 -6.421,6.938 -3.738,3.358 -6.092,6.312 -9.991,9.452 -1.581,-2.332 -4.974,-3.9 -6.267,-5.798 z m -88.318,81.968 c -4.405,-4.845 -3.483,-13.926 -2.949,-20.386 7.961,5.009 18.527,-0.395 18.427,-8.914 3.801,0.102 1.42,4.748 0.733,7.741 -2.247,9.776 3.785,20.397 0.273,29.337 -6.818,-0.518 -12.42,-3.303 -16.484,-7.778 l 0,0 z m 31.514,28.126 c -9.97,-2.827 -22.749,-10.071 -26.846,-19.028 3.173,0.461 5.375,2.061 8.505,2.259 1.183,0.077 2.732,-0.495 4.091,-0.158 2.709,0.672 4.995,6.746 7.039,9.006 1.992,2.207 4.387,3.15 6.026,5.162 1.052,0.508 2.609,0.473 2.669,2.054 -0.457,0.488 -0.938,0.86 -1.484,0.705 z m 51.903,-2.658 c -10.349,5.838 -27.866,10.23 -38.874,4.743 -8.883,-4.43 -20.89,-11.757 -24.984,-21.043 3.824,-8.962 -1.133,-17.173 -1.449,-26.27 -0.168,-4.841 2.279,-9.067 2.466,-14.337 -1.309,-2.159 -5.306,-2.425 -8.074,-2.277 -0.931,4.662 -2.562,9.902 -7.363,10.428 -6.793,0.743 -11.759,-4.879 -12.068,-10.754 -0.366,-6.909 5.306,-18.36 13.345,-17.566 3.105,0.307 3.869,3.42 7.252,3.388 1.833,-3.659 -2.829,-4.808 -3.309,-7.425 -0.125,-0.676 0.387,-3.318 0.684,-4.557 1.46,-6.033 4.715,-13.841 7.919,-18.434 4.066,-5.827 12.056,-6.704 20.651,-7.275 1.535,3.307 7.19,3.034 10.875,2.169 -4.417,1.749 -8.522,5.989 -11.924,9.742 -3.908,4.306 -7.867,8.925 -8.067,14.553 7.386,-10.246 13.488,-19.195 26.917,-23.701 10.162,-3.409 22.03,1.562 29.837,7.045 3.24,2.279 5.174,5.895 7.477,9.205 8.616,12.395 12.637,30.087 11.754,47.234 -0.364,7.073 -0.349,14.12 -2.721,18.878 -2.48,4.975 -10.868,9.426 -15.778,4.926 -0.91,4.838 4.083,7.831 9.948,6.089 -4.181,5.4 -8.57,11.885 -14.514,15.239 l 0,0 z M 144.444,77.117 c 8.087,4.02 23.197,10.821 28.267,-0.015 1.871,-3.995 4.066,-10.746 5.035,-14.87 1.369,-5.816 -1.484,-18.043 -7.463,-19.995 -5.281,-1.724 -11.443,-1.62 -17.804,-0.341 -0.749,0.623 -1.583,1.709 -2.166,2.841 -4.542,0.176 -8.795,-0.245 -12.383,-2.111 0.34,-3.359 -1.932,-3.898 -4.062,-4.59 -1.579,-6.261 3.159,-14.438 2.025,-20.147 -0.809,-4.067 -5.813,-4.696 -9.491,-5.457 -0.12,-2.26 0.161,-4.147 0.412,-6.059 C 125.973,3.274 122.201,1.51 118.626,1.078 106.868,-0.334 89.013,-0.97 77.703,3.098 74.547,10.84 72.06,20.257 69.431,29.096 58.4,27.918 49.478,33.856 41.067,37.746 c -2.912,1.35 -6.941,2.094 -8.028,4.412 -1.055,2.245 -0.624,6.545 -0.885,10.609 -0.666,10.377 -1.236,20.386 -3.977,31.011 -1.23,4.767 -3.375,8.975 -4.871,13.569 -1.383,4.258 -3.798,9.52 -4.429,13.766 -0.934,6.293 4.991,6.643 8.78,9.37 5.858,4.217 10.456,6.549 16.799,10.355 1.879,1.127 7.544,3.98 8.189,5.294 1.281,2.605 -2.199,6.278 -3.13,8.32 -1.472,3.229 -2.239,5.972 -2.45,9.159 -5.322,0.841 -9.355,4.008 -11.792,7.579 -4.031,5.909 -6.827,16.844 -3.339,25.161 0.273,0.655 1.638,1.943 1.839,2.948 0.397,1.981 -0.747,4.616 -0.818,6.723 -0.366,10.809 1.829,20.123 9.106,23.384 2.954,11.769 13.528,15.682 23.49,21.531 3.724,2.186 7.829,3.583 12.069,5.143 15.208,5.597 38.541,4.543 51.163,-5.003 5.352,-4.048 13.907,-12.595 16.967,-18.783 8.082,-16.337 7.508,-43.64 1.855,-63.513 -0.76,-2.668 -1.862,-6.59 -3.401,-9.795 -1.073,-2.238 -4.408,-6.716 -4.003,-8.692 0.417,-2.043 7.605,-7.5 9.145,-8.986 2.775,-2.677 8.047,-6.23 8.474,-9.609 0.459,-3.594 -1.584,-8.512 -2.62,-11.982 -3.457,-11.578 -6.833,-22.279 -10.756,-32.6" /><path
         id="path132"
         inkscape:connector-curvature="0"
         style="fill:#f7e4cd"
         d="m 90.491,157.255 c 0.439,0.584 2.851,1.471 6.226,-0.154 0,0 -4,-0.666 -3.667,-7.336 l -1.666,0.334 c -0.001,0 -1.724,6.047 -0.893,7.156" /><path
         id="path134"
         inkscape:connector-curvature="0"
         style="fill:#1d1919"
         d="m 119.717,99.934 c 0,-1.012 -0.82,-1.833 -1.833,-1.833 -1.012,0 -1.833,0.82 -1.833,1.833 0,1.012 0.821,1.834 1.833,1.834 1.012,0 1.833,-0.822 1.833,-1.834" /><path
         id="path136"
         inkscape:connector-curvature="0"
         style="fill:#1d1919"
         d="m 121.55,91.434 c 0,-1.012 -0.821,-1.833 -1.834,-1.833 -1.012,0 -1.833,0.82 -1.833,1.833 0,1.012 0.821,1.834 1.833,1.834 1.013,0 1.834,-0.822 1.834,-1.834" /></g></g></svg>