<?xml version="1.0" encoding="UTF-8" standalone="no"?>
<svg
   xmlns:dc="http://purl.org/dc/elements/1.1/"
   xmlns:cc="http://creativecommons.org/ns#"
   xmlns:rdf="http://www.w3.org/1999/02/22-rdf-syntax-ns#"
   xmlns:svg="http://www.w3.org/2000/svg"
   xmlns="http://www.w3.org/2000/svg"
   id="svg2"
   preserveAspectRatio="xMinYMin meet"
   version="1.1"
   viewBox="0 0 256 260"
   height="260"
   width="256">
  <metadata
     id="metadata64">
    <rdf:RDF>
      <cc:Work
         rdf:about="">
        <dc:format>image/svg+xml</dc:format>
        <dc:type
           rdf:resource="http://purl.org/dc/dcmitype/StillImage" />
        <dc:title></dc:title>
      </cc:Work>
    </rdf:RDF>
  </metadata>
  <defs
     id="defs62" />
  <g
     transform="translate(0,-53)"
     id="g4">
    <g
       transform="translate(0.6737288,53.70339)"
       id="g6">
      <path
         style="fill:#3185b8"
         id="path8"
         d="m 255.28,19.165867 c -1.84213,-1.5104 -16.31893,-9.2736003 -16.31893,-9.2736003 L 223.5136,18.8672 223.5046,18.8619 238.95253,9.888 223.5104,0.6848 223.5054,18.861867 207.39446,9.8442667 c 0,0 -13.17866,7.7034663 -19.5776,11.3962663 -8.0544,4.647467 -27.80906,16.4096 -27.80906,16.4096 l 0,17.3696 -16.27414,42.4 0,23.022937 -11.42186,6.66666 -4.5454,11.88907 L 95.738667,55.9136 95.744,37.6928 31.914667,0.66453333 0.03093333,19.121067 0,19.1136 l 0,18.776533 19.883733,47.8912 12.0832,7.1168 0.01067,21.839997 47.9008,116.34347 47.871997,27.39627 0,0.15786 47.80907,-27.66613 79.89333,-193.461333 -0.1728,-18.3424" />
      <path
         style="fill:#3185b8"
         id="path10"
         d="M 127.7856,258.49813 79.8784,231.0816 31.9776,114.73813 31.966933,92.898133 19.883733,85.781333 0,37.890133 0,19.1136 l 15.733333,9.173333 0,18.484267 16.261334,9.4368 0.0021,-18.592 31.771733,18.382933 1.531734,18.1984 46.188806,119.891197 32.0992,18.69867 0,36.66773 -15.84747,-9.3216 0.0448,18.3648" />
      <path
         style="fill:#61a5ce"
         id="path12"
         d="m 95.738667,55.9136 32.027733,83.0848 -0.0661,45.7664 -16.2336,9.23307 L 65.300267,74.064 63.768533,55.998933 95.744,37.6928 95.7387,55.9136" />
      <path
         style="fill:#61a5ce"
         id="path14"
         d="m 15.733333,28.286933 0,18.484267 L 31.9968,37.616 15.733333,28.286933" />
      <path
         style="fill:#eae9e6"
         id="path16"
         d="M 31.994667,56.208 31.9968,37.616 15.733333,46.7712 31.994667,56.208" />
      <path
         style="fill:#3185b8"
         id="path18"
         d="m 127.70027,184.7648 16.01066,9.1616 17.82614,-44.75733 13.728,8.16853 0,-42.89493 4.37973,-10.35627 11.68853,6.8448 0,-18.133333 -15.91146,-9.2448 16,-9.288534 -15.73334,-9.066666 -0.0416,-18.429867 -15.63946,-9.117867 0,17.3696 -16.27414,42.4 0,23.022937 -11.42186,6.66666 -4.54507,11.88907 -0.0661,45.7664" />
      <path
         style="fill:#61a5ce"
         id="path20"
         d="m 127.48053,203.5008 16.10774,9.2864 -0.08,36.67627 32.0512,-18.49387 L 255.4528,37.508267 255.28,19.165867 207.39413,46.768 l 0,36.824533 -16.0608,9.205334 0,18.133333 -11.68853,-6.8448 -4.37973,10.35627 0,42.80533 -22.24427,13.08053 -9.30987,23.59787 -16.2304,9.5744" />
      <path
         style="fill:#eae9e6"
         id="path22"
         d="m 63.6672,74.397867 16.066133,-9.333334 0,18.466134 -16.066133,-9.1328" />
      <path
         style="fill:#3185b8"
         id="path24"
         d="m 79.733333,83.530667 15.9328,9.000533 0,-18.133333 -15.9328,-9.333334 0,18.466134" />
      <path
         style="fill:#61a5ce"
         id="path26"
         d="m 47.845333,120.19627 0,18.59946 16.0864,-9.25653 -16.0864,-9.34293" />
      <path
         style="fill:#eae9e6"
         id="path28"
         d="m 79.988267,138.88213 -16.142934,9.39947 -16,-9.48587 16.0864,-9.25653 16.056534,9.34293" />
      <path
         style="fill:#61a5ce"
         id="path30"
         d="m 79.770667,194.13333 0,18.75734 16.1696,-9.34934 -16.1696,-9.408" />
      <path
         style="fill:#eae9e6"
         id="path32"
         d="m 111.52213,230.8832 16.28694,9.46667 0.0587,-19.05174 -16.3456,9.58507" />
      <path
         style="fill:#61a5ce"
         id="path34"
         d="m 127.7504,258.63573 0.0587,-18.28586 15.6992,9.1136 -15.75787,9.17226" />
      <path
         style="fill:#eae9e6"
         id="path36"
         d="m 127.70027,184.7648 -16.2336,9.23307 16.01386,9.50293 16.2304,-9.5744 -16.01066,-9.1616" />
      <path
         style="fill:#3185b8"
         id="path38"
         d="m 207.39413,83.592533 0,-36.824533 -15.85386,-9.025067 0,18.346667 -15.85174,9.108267 31.7056,18.394666" />
      <path
         style="fill:#eae9e6"
         id="path40"
         d="m 175.42187,83.553067 16,-9.288534 15.97226,9.328 -16.0608,9.205334 -15.91146,-9.2448" />
      <path
         style="fill:#61a5ce"
         id="path42"
         d="m 175.68853,65.197867 15.85174,-9.108267 0,-18.346667 -15.89334,9.025067 0.0416,18.429867" />
      <path
         style="fill:#3185b8"
         id="path44"
         d="M 223.50507,18.862933 223.5104,0.6848 238.95253,9.888 223.50507,18.862933" />
      <path
         style="fill:#eae9e6"
         id="path46"
         d="M 255.28,19.165867 207.39413,46.768 191.54027,37.742933 175.64693,46.768 160.00747,37.650133 c 0,0 19.75466,-11.762133 27.80906,-16.4096 6.39894,-3.6928 19.5776,-11.3962663 19.5776,-11.3962663 L 223.5136,18.8672 238.96107,9.8922667 c 0,0 14.4768,7.7632003 16.31893,9.2736003 -4.35627,2.545066 0,0 0,0" />
      <path
         style="fill:#eae9e6"
         id="path48"
         d="M 95.744,37.6928 63.768533,55.998933 0.03093333,19.121067 31.914667,0.66453333 95.744,37.6928" />
      <path
         style="fill:#3185b8"
         id="path50"
         d="m 239.20427,46.347733 0,-17.915733 -15.57974,8.989867 15.57974,8.925866" />
      <path
         style="fill:#3185b8"
         id="path52"
         d="m 191.97973,129.6384 15.50294,-8.89387 0,17.83787 -15.50294,-8.944" />
      <path
         style="fill:#eae9e6"
         id="path54"
         d="m 159.58293,203.37813 0,18.48427 16.14827,-9.34187 -16.14827,-9.1424" />
      <path
         style="fill:#3185b8"
         id="path56"
         d="m 175.83147,212.52053 -0.19947,-18.33493 -16.04907,9.19253 16.24854,9.1424" />
    </g>
  </g>
</svg>
