<?xml version="1.0" encoding="iso-8859-1"?>
<!-- Generator: Adobe Illustrator 19.0.0, SVG Export Plug-In . SVG Version: 6.00 Build 0)  -->
<svg version="1.1" id="Capa_1" xmlns="http://www.w3.org/2000/svg" xmlns:xlink="http://www.w3.org/1999/xlink" x="0px" y="0px"
	 viewBox="0 0 512.001 512.001" style="enable-background:new 0 0 512.001 512.001;" xml:space="preserve">
<path style="fill:#FEA832;" d="M466.996,0H256c-24.9,0-44.999,20.099-44.999,44.999c0,66.773,0,54.76,0,120.997
	c0,24.852,20.147,44.999,44.999,44.999h77.347l27.65,21.899l4.501,3.6l60.999,59.999c4.199,4.501,10.8,5.7,16.199,3.301
	c5.7-2.401,9.3-7.8,9.3-13.801v-74.998h15c24.9,0,44.999-20.099,44.999-44.999V44.999C511.995,20.099,491.895,0,466.996,0z"/>
<path style="fill:#FE9923;" d="M511.995,44.999v120.997c0,24.9-20.099,44.999-44.999,44.999h-15v74.998c0,6-3.6,11.4-9.3,13.801
	c-5.4,2.399-12.001,1.199-16.199-3.301l-60.999-59.999l-4.501-3.6V0h105.998C491.895,0,511.995,20.099,511.995,44.999z"/>
<path style="fill:#FEDB41;" d="M300.999,255.995v119.997c0,24.9-20.099,44.999-44.999,44.999h-83.697l-21.301,21.301
	c-8.401,8.399-20.501,20.499-65.5,65.198c-4.199,4.501-10.8,5.7-16.199,3.301c-5.7-2.401-9.3-7.8-9.3-13.801v-75.998h-15
	c-24.9,0-44.999-20.099-44.999-44.999V255.995c0-24.9,20.099-44.999,44.999-44.999c98.998,0,5.2,0,105.998,0H256
	C280.9,210.995,300.999,231.094,300.999,255.995z"/>
<path style="fill:#FFAE34;" d="M300.999,255.995v119.997c0,24.9-20.099,44.999-44.999,44.999h-83.697l-21.301,21.301V210.995H256
	C280.9,210.995,300.999,231.094,300.999,255.995z"/>
<g>
	<path style="fill:#57555C;" d="M375.998,180.996h-25.498c-2.401-5.099-5.101-9.6-8.401-14.399l12.9-21.901
		c2.1-3.6,2.401-7.798,1.5-11.4c-1.199-3.898-3.6-7.2-6.899-9.3l-52.199-29.999c-7.2-4.199-16.199-1.5-20.4,5.7l-12.601,21.6
		c-2.701-0.3-5.402-0.3-8.401-0.3s-5.7,0-8.401,0.3L235,99.697c-4.2-7.2-13.5-9.899-20.4-5.7l-52.199,29.999
		c-3.3,2.1-5.7,5.402-6.899,9.3c-0.901,3.602-0.601,7.8,1.5,11.4l12.9,21.901c-3.3,4.799-6,9.3-8.401,14.399h-25.498
		c-8.401,0-15,6.599-15,15v59.999c0,8.401,6.599,15,15,15h25.498c2.401,5.099,5.101,9.6,8.401,14.399l-12.9,21.901
		c-2.1,3.6-2.401,7.798-1.5,11.4c1.199,3.898,3.6,7.2,6.899,9.3l52.199,29.999c6.899,3.9,16.199,1.5,20.4-5.7l12.599-21.601
		c2.701,0.3,5.402,0.3,8.401,0.3c2.999,0,5.7,0,8.401-0.3l12.599,21.601c2.699,4.799,7.8,7.5,12.9,7.5c2.699,0,5.4-0.601,7.5-1.8
		l52.199-29.999c3.3-2.1,5.7-5.402,6.899-9.3c0.901-3.602,0.601-7.8-1.5-11.4l-12.9-21.901c3.3-4.799,6-9.3,8.401-14.399h25.498
		c8.401,0,15-6.599,15-15v-59.999C390.998,187.595,384.398,180.996,375.998,180.996z M256,270.994
		c-24.9,0-44.999-20.099-44.999-44.999S231.1,180.996,256,180.996s44.999,20.099,44.999,44.999S280.9,270.994,256,270.994z"/>
	<path style="fill:#57555C;" d="M390.998,195.996v59.999c0,8.401-6.599,15-15,15h-25.498c-2.401,5.099-5.101,9.6-8.401,14.399
		l12.9,21.901c2.1,3.6,2.401,7.798,1.5,11.4c-1.199,3.898-3.6,7.2-6.899,9.3l-52.199,29.999c-2.1,1.199-4.801,1.8-7.5,1.8
		c-5.099,0-10.201-2.701-12.9-7.5L264.4,330.693c-2.701,0.3-5.402,0.3-8.401,0.3v-59.999c24.9,0,44.999-20.099,44.999-44.999
		s-20.099-44.999-44.999-44.999v-59.999c2.999,0,5.7,0,8.401,0.3l12.599-21.601c4.2-7.2,13.2-9.899,20.4-5.7l52.199,29.999
		c3.3,2.1,5.7,5.402,6.899,9.3c0.901,3.602,0.601,7.8-1.5,11.4l-12.9,21.901c3.3,4.799,6,9.3,8.401,14.399h25.498
		C384.398,180.996,390.998,187.595,390.998,195.996z"/>
</g>
<g>
</g>
<g>
</g>
<g>
</g>
<g>
</g>
<g>
</g>
<g>
</g>
<g>
</g>
<g>
</g>
<g>
</g>
<g>
</g>
<g>
</g>
<g>
</g>
<g>
</g>
<g>
</g>
<g>
</g>
</svg>
