<?xml version="1.0" encoding="iso-8859-1"?>
<!-- Generator: Adobe Illustrator 19.0.0, SVG Export Plug-In . SVG Version: 6.00 Build 0)  -->
<svg version="1.1" id="Capa_1" xmlns="http://www.w3.org/2000/svg" xmlns:xlink="http://www.w3.org/1999/xlink" x="0px" y="0px"
	 viewBox="0 0 394 394" style="enable-background:new 0 0 394 394;" xml:space="preserve">
<polygon style="fill:#FFCE17;" points="354,180.4 322,292 72.4,292 40.4,180.4 60,169.2 133.2,209.6 178.4,122 212,122 264,207.2 
	336.8,165.6 "/>
<g>
	<polygon style="fill:#FFE500;" points="70,174.8 60,169.2 40.4,180.4 72.4,292 92.4,292 60.4,180.4 	"/>
	<polygon style="fill:#FFE500;" points="153.2,209.6 198.4,122 178.4,122 137.6,201.2 	"/>
</g>
<circle style="fill:#FFCE17;" cx="197.2" cy="94.4" r="33.6"/>
<path style="fill:#FFE500;" d="M178.4,94.4c0-16,11.2-29.2,26-32.8c-2.4-0.4-4.8-0.8-7.2-0.8c-18.4,0-33.6,14.8-33.6,33.6
	c0,18.4,14.8,33.6,33.6,33.6c2.4,0,4.8-0.4,7.2-0.8C189.6,123.6,178.4,110.4,178.4,94.4z"/>
<circle style="fill:#FFCE17;" cx="33.2" cy="154.8" r="26.8"/>
<path style="fill:#FFE500;" d="M19.2,154.8c0-12.4,8.8-23.2,20.4-26c-2-0.4-4-0.8-6.4-0.8c-14.8,0-26.8,12-26.8,26.8
	s12,26.8,26.8,26.8c2.4,0,4.4-0.4,6.4-0.8C28,177.6,19.2,167.2,19.2,154.8z"/>
<circle style="fill:#FFCE17;" cx="361.2" cy="154.8" r="26.8"/>
<path style="fill:#FFE500;" d="M348,154.8c0-12.4,8.4-22.8,20-25.6c-2-0.4-4.4-0.8-6.8-0.8c-14.8,0-26.8,12-26.8,26.8
	s12,26.8,26.8,26.8c2.4,0,4.4-0.4,6.8-0.8C356.4,177.6,348,167.2,348,154.8z"/>
<path style="fill:#D05B00;" d="M328.4,312.4c0,11.2-10.4,20.4-22.8,20.4H89.2c-12.8,0-22.8-9.2-22.8-20.4l0,0
	c0-11.2,10.4-20.4,22.8-20.4h216C318,292,328.4,301.2,328.4,312.4L328.4,312.4z"/>
<path style="fill:#E56C1A;" d="M88.8,312.4c0-11.2,10.4-20.4,22.8-20.4H89.2c-12.8,0-22.8,9.2-22.8,20.4c0,11.2,10.4,20.4,22.8,20.4
	h22.4C98.8,332.4,88.8,323.6,88.8,312.4z"/>
<path style="fill:#300F00;" d="M361.2,122c-18,0-32.8,14.8-32.8,32.8c0,3.6,0.4,6.8,1.6,10l-64.8,35.6L222,125.2
	c8.8-7.2,14.8-18.4,14.8-30.8c0-21.6-17.6-39.2-39.2-39.2s-39.2,17.6-39.2,39.2c0,12.4,5.6,23.6,14.8,30.8l-44,75.2L64,164.8
	c1.2-3.2,1.6-6.8,1.6-10c0-18-14.8-32.8-32.8-32.8S0,136.8,0,154.8s14.8,32.8,32.8,32.8c1.2,0,2,0,3.2,0L66.4,294
	c0,0.4,0.4,1.2,0.8,1.6c-4.4,4.8-7.2,10.4-7.2,17.2c0,14.4,12.8,26,28.8,26h216.4c16,0,28.8-11.6,28.8-26c0-6.4-2.8-12.4-7.2-17.2
	c0.4-0.4,0.4-0.8,0.8-1.6L358,187.6c1.2,0,2,0,3.2,0c18,0,32.8-14.8,32.8-32.8C394,136.8,379.2,122,361.2,122z M197.2,66.8
	c15.2,0,27.6,12.4,27.6,27.6c0,15.2-12.4,27.6-27.6,27.6s-27.6-12.4-27.6-27.6S182,66.8,197.2,66.8z M12.4,154.8
	c0-11.6,9.2-20.8,20.8-20.8S54,143.2,54,154.8s-9.2,20.8-20.8,20.8S12.4,166,12.4,154.8z M305.2,326.8h-216
	c-9.6,0-17.2-6.4-17.2-14.4S79.6,298,89.2,298h216c9.2,0,17.2,6.4,17.2,14.4C322.4,320,314.8,326.8,305.2,326.8z M317.6,286h-12.4
	h-216H76.8L47.6,184c4.4-2,8-5.2,10.8-8.8l70,38c0.8,0.4,2,0.8,2.8,0.8c2,0,4-1.2,5.2-2.8l46.4-80c4.4,1.6,9.2,2.8,14.4,2.8
	c5.2,0,10-1.2,14.4-2.8l46.4,80c1.2,2,3.2,2.8,5.2,2.8c0.8,0,2-0.4,2.8-0.8l70-38c2.8,3.6,6.8,6.4,10.8,8.8L317.6,286z M361.2,175.6
	c-11.6,0-20.8-9.2-20.8-20.8s9.2-20.8,20.8-20.8c11.6,0,20.8,9.2,20.8,20.8C382,166,372.8,175.6,361.2,175.6z"/>
<g>
</g>
<g>
</g>
<g>
</g>
<g>
</g>
<g>
</g>
<g>
</g>
<g>
</g>
<g>
</g>
<g>
</g>
<g>
</g>
<g>
</g>
<g>
</g>
<g>
</g>
<g>
</g>
<g>
</g>
</svg>
