<?xml version="1.0" encoding="iso-8859-1"?>
<!-- Generator: Adobe Illustrator 19.0.0, SVG Export Plug-In . SVG Version: 6.00 Build 0)  -->
<svg version="1.1" id="Capa_1" xmlns="http://www.w3.org/2000/svg" xmlns:xlink="http://www.w3.org/1999/xlink" x="0px" y="0px"
	 viewBox="0 0 512 512" style="enable-background:new 0 0 512 512;" xml:space="preserve">
<polygon style="fill:#69D5FF;" points="342.721,164.786 256,474.36 512,186.466 "/>
<polygon style="fill:#13B8FF;" points="512,186.466 402.162,37.64 352.4,96.777 364.402,186.466 "/>
<g>
	<polygon style="fill:#AEECFF;" points="115.078,164.786 256,474.36 364.402,186.466 	"/>
	<polygon style="fill:#AEECFF;" points="402.162,37.64 256,37.64 291.744,133.604 364.402,186.466 	"/>
</g>
<g>
	<polygon style="fill:#DBF7FF;" points="0,186.466 256,474.36 147.598,186.466 84.862,164.786 	"/>
	<polygon style="fill:#DBF7FF;" points="256,37.64 109.838,37.64 103.276,128.188 147.598,186.466 216.465,132.521 	"/>
</g>
<polygon style="fill:#69D5FF;" points="364.402,186.466 256,37.64 147.598,186.466 "/>
<polygon style="fill:#AEECFF;" points="109.838,37.64 0,186.466 147.598,186.466 "/>
<g>
</g>
<g>
</g>
<g>
</g>
<g>
</g>
<g>
</g>
<g>
</g>
<g>
</g>
<g>
</g>
<g>
</g>
<g>
</g>
<g>
</g>
<g>
</g>
<g>
</g>
<g>
</g>
<g>
</g>
</svg>
