<?xml version="1.0" encoding="iso-8859-1"?>
<!-- Generator: Adobe Illustrator 19.0.0, SVG Export Plug-In . SVG Version: 6.00 Build 0)  -->
<svg version="1.1" id="Capa_1" xmlns="http://www.w3.org/2000/svg" xmlns:xlink="http://www.w3.org/1999/xlink" x="0px" y="0px"
	 viewBox="0 0 512 512" style="enable-background:new 0 0 512 512;" xml:space="preserve">
<path style="fill:#1689FC;" d="M407,361c-57.9,0-105,48.1-105,106v30c0,8.401,6.599,15,15,15h180c8.401,0,15-6.599,15-15v-30
	C512,409.1,464.9,361,407,361z"/>
<path style="fill:#415BE8;" d="M512,467v30c0,8.401-6.599,15-15,15h-90V361C464.9,361,512,409.1,512,467z"/>
<path style="fill:#17ACE8;" d="M407,241c-41.4,0-75,33.6-75,75s33.6,75,75,75s75-33.6,75-75S448.4,241,407,241z"/>
<path style="fill:#1689FC;" d="M482,316c0,41.4-33.6,75-75,75V241C448.4,241,482,274.6,482,316z"/>
<path style="fill:#FEDB41;" d="M467,0H287c-24.901,0-45,21.099-45,46v120c0,24.901,20.099,45,45,45h53.699l55.801,55.499
	C399.2,269.5,403.1,271,407,271c1.8,0,3.9-0.3,5.7-1.199C418.4,267.4,422,262,422,256v-45h45c24.901,0,45-20.099,45-45V46
	C512,21.099,491.901,0,467,0z"/>
<path style="fill:#FFAE34;" d="M512,46v120c0,24.901-20.099,45-45,45h-45v45c0,6-3.6,11.4-9.3,13.801C410.9,270.7,408.8,271,407,271
	V0h60C491.901,0,512,21.099,512,46z"/>
<path style="fill:#1689FC;" d="M106,121C48.1,121,0,168.1,0,226v30c0,8.401,6.599,15,15,15h182c8.401,0,15-6.599,15-15v-30
	C212,168.1,163.9,121,106,121z"/>
<path style="fill:#415BE8;" d="M212,226v30c0,8.401-6.599,15-15,15h-91V121C163.9,121,212,168.1,212,226z"/>
<path style="fill:#17ACE8;" d="M106,0C64.6,0,30,34.6,30,76s34.6,75,76,75s76-33.6,76-75S147.4,0,106,0z"/>
<path style="fill:#1689FC;" d="M182,76c0,41.4-34.6,75-76,75V0C147.4,0,182,34.6,182,76z"/>
<g>
	<path style="fill:#787780;" d="M452,76c0,8.401-6.599,15-15,15H317c-8.401,0-15-6.599-15-15s6.599-15,15-15h120
		C445.401,61,452,67.599,452,76z"/>
	<path style="fill:#787780;" d="M452,136c0,8.401-6.599,15-15,15H317c-8.401,0-15-6.599-15-15s6.599-15,15-15h120
		C445.401,121,452,127.599,452,136z"/>
</g>
<g>
	<path style="fill:#57555C;" d="M452,136c0,8.401-6.599,15-15,15h-30v-30h30C445.401,121,452,127.599,452,136z"/>
	<path style="fill:#57555C;" d="M437,91h-30V61h30c8.401,0,15,6.599,15,15S445.401,91,437,91z"/>
</g>
<path style="fill:#FEDB41;" d="M227,301h-53.699L116.5,245.501c-3-3.001-6.6-4.501-10.5-4.501c-2.1,0-3.9,0.3-5.7,1.199
	C94.6,244.6,91,250,91,256v45H45c-24.901,0-45,20.099-45,45v121c0,24.901,20.099,45,45,45h182c24.901,0,45-20.099,45-45V346
	C272,321.099,251.901,301,227,301z"/>
<path style="fill:#FFAE34;" d="M272,346v121c0,24.901-20.099,45-45,45H106V241c3.9,0,7.5,1.5,10.499,4.501L173.301,301H227
	C251.901,301,272,321.099,272,346z"/>
<g>
	<path style="fill:#787780;" d="M212,436c0,8.401-6.599,15-15,15H75c-8.401,0-15-6.599-15-15s6.599-15,15-15h122
		C205.401,421,212,427.599,212,436z"/>
	<path style="fill:#787780;" d="M212,376c0,8.401-6.599,15-15,15H75c-8.401,0-15-6.599-15-15s6.599-15,15-15h122
		C205.401,361,212,367.599,212,376z"/>
</g>
<g>
	<path style="fill:#57555C;" d="M212,436c0,8.401-6.599,15-15,15h-91v-30h91C205.401,421,212,427.599,212,436z"/>
	<path style="fill:#57555C;" d="M197,391h-91v-30h91c8.401,0,15,6.599,15,15S205.401,391,197,391z"/>
</g>
<g>
</g>
<g>
</g>
<g>
</g>
<g>
</g>
<g>
</g>
<g>
</g>
<g>
</g>
<g>
</g>
<g>
</g>
<g>
</g>
<g>
</g>
<g>
</g>
<g>
</g>
<g>
</g>
<g>
</g>
</svg>
