<?xml version="1.0" encoding="iso-8859-1"?>
<!-- Generator: Adobe Illustrator 19.0.0, SVG Export Plug-In . SVG Version: 6.00 Build 0)  -->
<svg version="1.1" id="Capa_1" xmlns="http://www.w3.org/2000/svg" xmlns:xlink="http://www.w3.org/1999/xlink" x="0px" y="0px"
	 viewBox="0 0 513.067 513.067" style="enable-background:new 0 0 513.067 513.067;" xml:space="preserve">
<path style="fill:#CED6E0;" d="M436.973,382.933c-1.067,4.267-1.067,2.133-2.133,5.333c-1.067,4.267-3.2,10.667-5.333,14.933
	c-2.133,4.267-2.133-1.067-4.267,9.6c-2.133,9.6-4.267,38.4-5.333,44.8s-1.067,9.6-2.133,13.867c0,4.267-2.133,14.933-2.133,17.067
	c0,2.133-2.133,2.133-2.133,7.467s2.133,5.333,2.133,10.667V512H89.24v-4.267c0-3.2,1.067-4.267,1.067-7.467s-2.133-3.2-2.133-5.333
	c0-1.067-1.067-8.533-1.067-11.733c0-3.2-1.067-5.333-1.067-9.6c0-4.267-2.133-23.467-3.2-29.867c-1.067-6.4-1.067-3.2-3.2-6.4
	c-1.067-3.2-3.2-7.467-3.2-9.6c-1.067-2.133,0-1.067-1.067-3.2c-1.067-3.2-2.133-24.533-1.067-26.667s2.133-2.133,4.267-2.133
	s3.2-4.267,8.533-5.333c5.333-1.067,11.733,2.133,16,3.2s14.933,0,14.933,0s9.6-1.067,13.867,0c4.267,1.067,7.467,2.133,9.6,4.267
	s8.533,4.267,10.667,4.267s3.2,1.067,7.467,1.067c4.267,1.067,8.533,6.4,12.8,9.6c4.267,3.2,13.867,8.533,20.267,13.867
	c5.333,4.267,17.067,11.733,20.267,14.933c8.533-6.4,70.4-72.533,76.8-76.8s13.867-12.8,19.2-13.867
	c6.4-1.067,8.533-1.067,11.733-2.133c3.2,0,11.733-3.2,16-6.4c4.267-3.2,8.533-5.333,14.933-6.4
	c5.333-1.067,21.333,1.067,21.333,1.067s16,1.067,22.4,0c6.4-1.067,14.933-5.333,23.467-4.267c8.533,1.067,8.533,7.467,12.8,7.467
	c3.2,0,5.333,0,6.4,3.2C440.173,346.667,439.106,378.667,436.973,382.933z"/>
<g>
	<path style="fill:#ADB3BA;" d="M395.373,438.4c3.2,2.133,5.333,1.067,6.4,6.4c0,5.333,2.133,11.733,4.267,11.733
		c2.133,1.067,3.2,17.067,5.333,20.267c1.067,4.267,0,29.867-1.067,34.133h6.4c0-1.067,0-3.2,0-6.4
		c0-5.333-2.133-5.333-2.133-10.667c0-5.333,2.133-5.333,2.133-7.467c0-2.133,2.133-12.8,2.133-17.067
		c0-4.267,1.067-7.467,2.133-13.867c0-3.2,1.067-14.933,2.133-25.6c-5.333-2.133-5.333,1.067-6.4-5.333
		c-1.067-6.4,3.2-16,1.067-20.267c-2.133-4.267-5.333-5.333-10.667-7.467c-5.333-2.133-10.667-3.2-14.933-6.4
		s-8.533,3.2-10.667,8.533c-2.133,5.333,5.333,25.6,5.333,25.6S393.24,436.267,395.373,438.4z"/>
	<path style="fill:#ADB3BA;" d="M329.24,420.267c-2.133,4.267,0,2.133-4.267,5.333c-4.267,3.2-44.8,34.133-44.8,34.133
		l50.133-37.333c0,0,4.267-5.333,8.533-6.4c5.333-2.133,14.933-3.2,20.267-3.2s4.267,6.4,7.467,6.4c2.133,0,2.133,0,3.2,0
		c-1.067,1.067-9.6,9.6-10.667,14.933c-2.133,5.333,0,5.333-3.2,11.733c-3.2,6.4-8.533,11.733-13.867,17.067
		c-5.333,5.333-8.533,20.267-11.733,24.533c-3.2,4.267-2.133,6.4-8.533,7.467c-7.467,1.067-16,0-19.2,3.2
		c-3.2,3.2-4.267,7.467-3.2,8.533c1.067,1.067-4.267,5.333-6.4,6.4h105.6c0-3.2,1.067-12.8-4.267-14.933
		c-6.4-3.2-10.667,1.067-7.467-5.333c2.133-5.333,4.267-10.667,7.467-16c3.2-4.267,6.4,6.4,0-9.6c-6.4-16-1.067-27.733-3.2-34.133
		c-2.133-6.4-3.2-7.467-6.4-12.8c-3.2-5.333-1.067-14.933,3.2-20.267c4.267-5.333,3.2-7.467,5.333-13.867
		c1.067-6.4,14.933-27.733,21.333-34.133s11.733-13.867,11.733-13.867s-7.467-3.2-16-2.133s-5.333,9.6-13.867,10.667
		s-8.533-1.067-13.867,1.067c-6.4,2.133-11.733,4.267-14.933,7.467c-3.2,2.133-5.333,4.267-5.333,4.267l19.2,9.6
		c0,0-1.067,18.133-5.333,23.467S370.84,400,370.84,400s8.533,2.133,8.533,3.2s1.067,6.4,1.067,6.4s-7.467-3.2-10.667,0
		c-3.2,4.267-4.267,5.333-4.267,5.333s0-9.6,0-16c0-5.333,1.067-9.6,0-10.667c0-1.067-3.2-5.333-9.6-9.6
		c-7.467-4.267-30.933-18.133-32-22.4s-1.067-5.333-1.067-5.333s-6.4,3.2,0,8.533c5.333,5.333,29.867,22.4,32,27.733
		s2.133,7.467-2.133,11.733C347.373,400,331.373,414.933,329.24,420.267z"/>
	<path style="fill:#ADB3BA;" d="M434.84,346.667l-3.2,23.467l-4.267,1.067c0,0-1.067-13.867-3.2-18.133
		c-1.067-4.267-4.267-10.667-4.267-10.667l9.6-3.2L434.84,346.667z"/>
	<path style="fill:#ADB3BA;" d="M418.84,365.867c1.067,2.133,2.133,4.267,3.2,7.467c0,1.067,1.067,1.067,1.067,2.133
		c0,1.067-1.067,2.133-1.067,2.133c-1.067,2.133,2.133,5.333,2.133,7.467c0,1.067,0,2.133,0,2.133c0,3.2-1.067,7.467,0,10.667
		c0-1.067-1.067-1.067-1.067-2.133c-1.067-1.067-1.067-3.2-1.067-4.267c0-1.067,1.067-3.2,0-4.267c0-1.067-1.067-3.2-2.133-4.267
		c-1.067-2.133-1.067-4.267-1.067-6.4c0-1.067,1.067-1.067,1.067-2.133c1.067-4.267-2.133-9.6-2.133-13.867"/>
	<path style="fill:#ADB3BA;" d="M103.106,462.933c-2.133,1.067-3.2,0-4.267,4.267c0,4.267-1.067,7.467-3.2,8.533
		c-1.067,0-2.133,10.667-3.2,13.867c-1.067,2.133,0,20.267,0,23.467h-3.2c0-1.067,0-2.133,0-4.267c0-3.2,1.067-3.2,1.067-7.467
		c0-3.2-2.133-3.2-2.133-5.333c0-1.067-1.067-8.533-1.067-11.733c0-3.2-1.067-5.333-1.067-9.6c0-2.133-1.067-9.6-2.133-17.067
		c3.2-1.067,3.2,1.067,4.267-3.2c1.067-4.267-2.133-10.667-1.067-13.867c3.2-3.2,5.333-3.2,8.533-5.333
		c3.2-1.067,7.467-2.133,10.667-4.267c3.2-2.133,5.333,2.133,7.467,5.333c1.067,3.2-4.267,17.067-4.267,17.067
		S105.24,460.8,103.106,462.933z"/>
	<path style="fill:#ADB3BA;" d="M148.973,450.133c1.067,3.2,0,2.133,3.2,4.267c2.133,2.133,29.867,23.467,29.867,23.467
		l-33.067-24.533c0,0-3.2-3.2-6.4-4.267c-3.2-1.067-9.6-2.133-13.867-2.133c-3.2,0-3.2,4.267-4.267,4.267c-1.067,0-2.133,0-2.133,0
		c1.067,1.067,6.4,6.4,7.467,10.667c1.067,4.267,0,3.2,2.133,7.467c2.133,4.267,5.333,7.467,8.533,11.733
		c3.2,3.2,5.333,13.867,7.467,16c2.133,3.2,1.067,4.267,6.4,4.267c4.267,0,10.667,0,12.8,2.133s3.2,5.333,2.133,5.333
		c-1.067,0,3.2,3.2,4.267,4.267H102.04c0-2.133-1.067-8.533,2.133-10.667c4.267-2.133,7.467,0,5.333-3.2
		c-2.133-4.267-3.2-7.467-5.333-10.667c-2.133-3.2-4.267,4.267,0-6.4c4.267-10.667,1.067-18.133,2.133-22.4
		c1.067-4.267,2.133-5.333,4.267-8.533c2.133-4.267,1.067-9.6-2.133-13.867c-3.2-4.267-2.133-6.4-3.2-10.667
		c-1.067-4.267-10.667-18.133-14.933-23.467c-4.267-4.267-7.467-9.6-7.467-9.6s5.333-2.133,10.667-1.067
		c5.333,1.067,3.2,6.4,9.6,7.467c5.333,0,5.333,0,9.6,1.067s8.533,3.2,10.667,4.267c2.133,2.133,4.267,3.2,4.267,3.2l-12.8,6.4
		c0,0,1.067,12.8,3.2,16s3.2,5.333,3.2,5.333s-5.333,1.067-5.333,2.133c0,1.067-1.067,4.267-1.067,4.267s5.333-2.133,7.467,0
		c2.133,2.133,3.2,3.2,3.2,3.2s0-6.4,0-10.667c0-4.267,0-6.4,0-7.467c0,0,2.133-3.2,6.4-6.4c4.267-3.2,20.267-11.733,21.333-14.933
		c1.067-3.2,1.067-3.2,1.067-3.2s4.267,2.133,0,5.333c-3.2,4.267-20.267,14.933-21.333,18.133c-2.133,4.267-1.067,5.333,1.067,7.467
		C136.173,436.267,146.84,446.933,148.973,450.133z"/>
	<path style="fill:#ADB3BA;" d="M76.44,401.067L78.573,416l3.2,1.067c0,0,1.067-9.6,2.133-12.8c1.067-3.2,3.2-7.467,3.2-7.467
		l-6.4-2.133L76.44,401.067z"/>
	<path style="fill:#ADB3BA;" d="M88.173,413.867c-1.067,1.067-1.067,3.2-2.133,4.267v1.067c0,1.067,0,1.067,1.067,2.133
		c0,2.133-1.067,3.2-1.067,5.333c0,1.067,0,1.067,0,2.133c0,2.133,0,4.267,0,7.467c0,0,0-1.067,1.067-1.067
		c1.067-1.067,1.067-2.133,0-3.2c0-1.067,0-2.133,0-3.2s1.067-2.133,1.067-3.2c1.067-1.067,1.067-3.2,0-4.267v-1.067
		c-1.067-3.2,1.067-6.4,1.067-9.6"/>
</g>
<g>
	<polyline style="fill:#415A6B;" points="415.64,346.667 416.706,347.733 420.973,347.733 419.906,343.467 416.706,344.533 	"/>
	<polyline style="fill:#415A6B;" points="333.506,346.667 327.106,346.667 333.506,341.333 335.64,343.467 	"/>
	<path style="fill:#415A6B;" d="M411.373,340.267c0,0,0,3.2,0,4.267s5.333,3.2,5.333,3.2l1.067-3.2c0,0,2.133,0,2.133,2.133
		c0,2.133-1.067,6.4,5.333,8.533c6.4,2.133,13.867,1.067,13.867-2.133C439.106,349.867,411.373,340.267,411.373,340.267"/>
</g>
<path style="fill:#344A5E;" d="M411.373,340.267c0,0,2.133,2.133,5.333,4.267c2.133,2.133,2.133,6.4,6.4,8.533
	c4.267,2.133,12.8,3.2,16,1.067c0,0,0-5.333-4.267-10.667s-6.4-10.667-6.4-11.733s-14.933,3.2-14.933,3.2
	S411.373,338.133,411.373,340.267z"/>
<path style="fill:#415A6B;" d="M338.84,339.2c0,0,0,3.2,0,4.267c0,1.067-5.333,3.2-5.333,3.2v-3.2c0,0-2.133,0-2.133,2.133
	c-1.067,2.133,1.067,6.4-6.4,8.533c-6.4,2.133-13.867,0-13.867-3.2C311.106,347.733,338.84,339.2,338.84,339.2"/>
<path style="fill:#344A5E;" d="M338.84,339.2c0,0-2.133,2.133-5.333,4.267c-2.133,2.133-2.133,6.4-6.4,8.533
	c-4.267,2.133-12.8,2.133-16-1.067c0,0,0-5.333,5.333-9.6c5.333-5.333,7.467-10.667,7.467-10.667c0-1.067,14.933,4.267,14.933,4.267
	S339.906,337.067,338.84,339.2z"/>
<path style="fill:#FFD15C;" d="M315.373,29.867L311.106,19.2c0,0-1.067-1.067,0-2.133c1.067-1.067,5.333-4.267,5.333-5.333
	c0-2.133-1.067-3.2-1.067-4.267s0-3.2-2.133-4.267c-1.067,0-1.067,0-1.067,0s1.067-2.133,0-3.2c0,0-2.133,0-3.2,1.067
	c0,0-1.067-1.067-2.133,0c-2.133,1.067-1.067,2.133-1.067,2.133s-1.067,0-2.133,0c-1.067,0-1.067,1.067-1.067,1.067
	s-1.067-1.067-2.133,0s-2.133,4.267-1.067,5.333c1.067,1.067,1.067,8.533,2.133,9.6c1.067,1.067,2.133,8.533,2.133,10.667
	c0,3.2,1.067,4.267,1.067,4.267L315.373,29.867z"/>
<g>
	<path style="fill:#415A6B;" d="M344.173,99.2c0,0-4.267-3.2-7.467-6.4c-3.2-3.2-10.667-7.467-10.667-7.467
		c0-1.067-2.133-1.067-4.267-6.4c-2.133-5.333-8.533-11.733-9.6-16s-12.8-28.8-12.8-28.8s11.733-2.133,16-7.467
		c0,0,2.133,7.467,4.267,10.667c2.133,3.2,2.133,4.267,3.2,6.4c1.067,3.2,2.133,3.2,3.2,4.267c1.067,2.133,2.133,2.133,3.2,5.333
		c1.067,3.2,1.067,2.133,2.133,4.267c2.133,2.133,6.4,7.467,9.6,10.667c3.2,3.2,4.267,4.267,5.333,5.333s3.2,2.133,3.2,2.133
		s1.067,1.067,3.2-1.067s8.533-5.333,9.6-3.2c2.133,3.2,2.133,3.2,2.133,3.2L344.173,99.2z"/>
	<path style="fill:#415A6B;" d="M349.506,172.8c0,0-4.267,6.4-6.4,18.133c-2.133,11.733-4.267,28.8-5.333,38.4
		c-1.067,9.6-1.067,13.867-2.133,20.267c-1.067,6.4-7.467,39.467-9.6,52.267s-4.267,30.933-4.267,30.933s3.2,5.333,8.533,5.333
		c5.333,0,6.4-3.2,8.533-3.2c0,0,0-6.4,2.133-8.533c2.133-2.133,8.533-13.867,9.6-18.133s12.8-53.333,14.933-59.733
		c2.133-5.333,10.667-34.133,10.667-34.133s7.467,18.133,10.667,29.867c3.2,10.667,9.6,44.8,12.8,59.733
		c2.133,14.933,12.8,34.133,12.8,34.133s3.2,1.067,8.533,1.067c6.4-1.067,8.533-4.267,10.667-3.2c0,0-1.067-8.533-3.2-14.933
		c-2.133-6.4-2.133-10.667-2.133-19.2s-2.133-18.133-4.267-25.6c-2.133-7.467-6.4-23.467-7.467-29.867s1.067-35.2-7.467-54.4
		c-7.467-21.333-7.467-21.333-7.467-21.333L349.506,172.8z"/>
</g>
<path style="fill:#2B4456;" d="M324.973,169.6c0,0,6.4,2.133,13.867,2.133c7.467,0,18.133,3.2,18.133,3.2s2.133-53.333,2.133-54.4
	l-7.467-13.867L324.973,169.6z"/>
<g>
	
		<ellipse transform="matrix(0.1288 -0.9917 0.9917 0.1288 279.0263 447.7018)" style="fill:#FFD15C;" cx="394.317" cy="65.046" rx="5.333" ry="2.133"/>
	
		<ellipse transform="matrix(0.1854 0.9827 -0.9827 0.1854 365.0256 -309.1844)" style="fill:#FFD15C;" cx="368.998" cy="65.574" rx="5.334" ry="2.133"/>
	<path style="fill:#FFD15C;" d="M394.306,61.867V64c0,0,0,9.6-3.2,14.933c0,0,2.133,9.6,3.2,10.667H377.24
		c-2.133,0-4.267-2.133-4.267-4.267V80c0,0-4.267-5.333-4.267-17.067s0-11.733,0-11.733s3.2-9.6,13.867-8.533
		c10.667,1.067,11.733,4.267,11.733,8.533C395.373,57.6,394.306,61.867,394.306,61.867z"/>
</g>
<path style="fill:#F7B64C;" d="M380.44,87.467c-3.2,0-7.467-6.4-7.467-6.4V86.4c0,2.133,2.133,4.267,4.267,4.267h7.467
	c7.467-5.333,6.4-10.667,6.4-10.667C387.906,86.4,382.573,87.467,380.44,87.467z"/>
<path style="fill:#415A6B;" d="M368.706,64L368.706,64c0,0,1.067-3.2,1.067-5.333s1.067-1.067,1.067-5.333
	c0-3.2,0-4.267,2.133-4.267c2.133,0,9.6,3.2,16,0c0,0,4.267-1.067,4.267,2.133c0,3.2-1.067,4.267,0,6.4
	c1.067,3.2,1.067,6.4,1.067,6.4l0,0c0,0,1.067-5.333,1.067-8.533s0-5.333,0-7.467s-1.067-6.4-7.467-8.533
	c-4.267-2.133-13.867-1.067-17.067,3.2c-4.267,4.267-2.133,10.667-3.2,12.8C367.64,57.6,368.706,64,368.706,64z"/>
<path style="fill:#CED6E0;" d="M349.506,119.467c0,0,2.133,13.867,2.133,20.267s0,20.267-1.067,23.467s-3.2,9.6-3.2,9.6
	s25.6,9.6,51.2-1.067l3.2-78.933l-6.4-4.267l-12.8,1.067h-1.067l-16-3.2L349.506,119.467z"/>
<path style="fill:#344A5E;" d="M372.973,82.133c0,0-5.333-6.4-7.467-7.467c-2.133-1.067-2.133-2.133-2.133-2.133
	s-12.8,12.8-18.133,14.933c0,0-3.2,6.4-4.267,10.667c-1.067,4.267-10.667,36.267-10.667,36.267l-12.8,38.4
	c0,0,4.267,2.133,10.667-4.267c6.4-6.4,8.533-20.267,10.667-25.6c2.133-5.333,5.333-9.6,5.333-9.6L372.973,82.133z"/>
<path style="fill:#415A6B;" d="M371.906,82.133c0,0,0,9.6,1.067,10.667c0,0-19.2,26.667-21.333,30.933
	c-2.133,3.2-7.467,11.733-7.467,11.733s8.533-17.067,9.6-22.4c1.067-5.333,12.8-27.733,14.933-30.933h4.267L371.906,82.133z"/>
<path style="fill:#FFD15C;" d="M414.573,196.267c0,0,0,2.133,0,4.267c0,2.133-1.067,4.267-1.067,4.267v2.133l-1.067,3.2
	c0,0,4.267,2.133,5.333-4.267c0,0,1.067-2.133,0-3.2c0,0,1.067,0,2.133,1.067c0,0-1.067,2.133,0,3.2c0,0-1.067,2.133-2.133,3.2
	c-1.067,1.067-2.133,1.067-2.133,2.133c0,0-3.2,0-4.267,2.133h2.133c0,0,2.133,0,3.2,0s5.333,0,5.333-1.067
	c0-1.067,3.2-6.4,4.267-8.533c0-1.067,0-6.4,0-6.4S416.706,196.267,414.573,196.267z"/>
<path style="fill:#415A6B;" d="M414.573,100.267l6.4-1.067c0,0,2.133,3.2,2.133,8.533c1.067,5.333,1.067,10.667,1.067,12.8
	c1.067,2.133,0,1.067,0,5.333c0,4.267-1.067,7.467,1.067,9.6s3.2,12.8,3.2,17.067c-1.067,4.267,0,28.8-1.067,36.267
	c0,7.467-1.067,12.8-1.067,12.8s-4.267-5.333-13.867-4.267c0,0,1.067-8.533,0-11.733c-1.067-3.2-2.133-8.533-2.133-11.733
	c-1.067-3.2-3.2-23.467-2.133-39.467C410.306,134.4,404.973,108.8,414.573,100.267z"/>
<path style="fill:#344A5E;" d="M400.706,90.667c0,0,6.4,2.133,10.667,3.2C415.64,96,422.04,99.2,422.04,99.2
	s-11.733,17.067-10.667,36.267c0,0-11.733,18.133,0,60.8c0,0-6.4,5.333-10.667,5.333c-3.2,0-9.6-38.4-9.6-46.933
	S400.706,90.667,400.706,90.667z"/>
<path style="fill:#E8EAE9;" d="M392.173,83.2c0,0,0,2.133-2.133,3.2c-2.133,1.067-7.467,3.2-7.467,3.2s4.267,4.267,4.267,8.533
	c0,0,7.467-6.4,8.533-8.533c0-3.2,0-3.2,0-3.2S394.306,84.267,392.173,83.2z"/>
<path style="fill:#415A6B;" d="M394.306,84.267c0,0,1.067,14.933,0,27.733s-4.267,33.067-4.267,42.667c0,0,4.267-13.867,6.4-20.267
	s10.667-32,10.667-32l-6.4-3.2l5.333-3.2c0,0-3.2-4.267-5.333-5.333C399.64,89.6,395.373,85.333,394.306,84.267z"/>
<path style="fill:#E8EAE9;" d="M372.973,81.067c0,0,1.067,4.267,8.533,8.533c0,0-5.333,4.267-5.333,7.467
	c0,0-4.267-6.4-4.267-10.667C370.84,81.067,371.906,81.067,372.973,81.067z"/>
<g>
	<path style="fill:#F7B64C;" d="M313.24,3.2h-1.067c0,0,0,0-1.067,0l0,0l0,0h-1.067h-1.067l0,0l0,0l0,0l0,0l0,0l0,0l0,0l0,0l0,0l0,0
		l0,0l0,0l0,0l0,0l0,0l0,0l0,0l0,0l0,0l0,0l0,0l0,0l0,0l0,0l0,0l0,0l0,0l0,0l0,0l0,0l0,0l0,0l0,0l0,0l0,0l0,0h1.067h1.067h1.067
		C312.173,3.2,313.24,3.2,313.24,3.2z"/>
	<path style="fill:#F7B64C;" d="M300.44,7.467l1.067,1.067l1.067,1.067l0,0l0,0l0,0l0,0l0,0l0,0l0,0l0,0l0,0l0,0l0,0l0,0l0,0
		c0,0,0,0,1.067,0l0,0l0,0l0,0V8.533l0,0l0,0l0,0l0,0l0,0l0,0l0,0l0,0l0,0l0,0l0,0l0,0l0,0l0,0l0,0l0,0l0,0l0,0h1.067h1.067h1.067
		l0,0l0,0l0,0l0,0l0,0l0,0l0,0l0,0l0,0h-1.067h-1.067l0,0l0,0l0,0l0,0l0,0l0,0l0,0l0,0l0,0l0,0l0,0l0,0l0,0l0,0l0,0l0,0l0,0l0,0l0,0
		l0,0c0,0,0,0-1.067,0l0,0l0,0l0,0l0,0l0,0l0,0l0,0l0,0l0,0l0,0l0,0l0,0c0,0,0,0,0-1.067C300.44,8.533,300.44,8.533,300.44,7.467z"
		/>
</g>
<g>
	<path style="fill:#ADB3BA;" d="M173.506,425.6c9.6,6.4,20.267,12.8,30.933,19.2c3.2,2.133,6.4,3.2,8.533,6.4
		c1.067,2.133,2.133,5.333,2.133,8.533c1.067,7.467,2.133,14.933,3.2,22.4c0-7.467-1.067-14.933-2.133-22.4
		c-1.067-3.2-1.067-6.4-3.2-9.6c-2.133-3.2-5.333-4.267-8.533-6.4C193.773,437.333,184.173,430.933,173.506,425.6"/>
	<polyline style="fill:#ADB3BA;" points="227.906,512 240.706,477.867 243.906,488.533 272.706,428.8 244.973,468.267 
		250.306,437.333 228.973,464 237.506,465.067 208.706,512 	"/>
	<path style="fill:#ADB3BA;" d="M189.506,494.933c0,0-10.667-1.067-10.667,0s21.333,14.933,21.333,14.933l-4.267-8.533l12.8,1.067
		l-67.2-46.933L189.506,494.933z"/>
</g>
<g>
</g>
<g>
</g>
<g>
</g>
<g>
</g>
<g>
</g>
<g>
</g>
<g>
</g>
<g>
</g>
<g>
</g>
<g>
</g>
<g>
</g>
<g>
</g>
<g>
</g>
<g>
</g>
<g>
</g>
</svg>
