<?xml version="1.0" encoding="iso-8859-1"?>
<!-- Generator: Adobe Illustrator 19.0.0, SVG Export Plug-In . SVG Version: 6.00 Build 0)  -->
<svg version="1.1" id="Layer_1" xmlns="http://www.w3.org/2000/svg" xmlns:xlink="http://www.w3.org/1999/xlink" x="0px" y="0px"
	 viewBox="0 0 496 496" style="enable-background:new 0 0 496 496;" xml:space="preserve">
<g>
	<g>
		<g>
			<path d="M285,380.128c16.312-11.616,27-30.632,27-52.128c0-35.288-28.712-64-64-64c-35.288,0-64,28.712-64,64
				c0,21.496,10.688,40.512,27,52.128c-20.496,8.328-35,28.424-35,51.872v64h144v-64C320,408.552,305.496,388.456,285,380.128z
				 M200,328c0-26.472,21.528-48,48-48s48,21.528,48,48s-21.528,48-48,48S200,354.472,200,328z M217.056,480H192v-48
				c0-15.696,9.176-29.184,22.376-35.728l11.744,20.344L217.056,480z M233.232,480l8.136-56.984h13.256L262.776,480H233.232z
				 M256.952,407.016h-17.904l-8.576-14.864c0.52-0.016,1.008-0.152,1.528-0.152h32c0.52,0,1.008,0.136,1.528,0.152L256.952,407.016
				z M304,480h-25.056l-9.056-63.384l11.744-20.344C294.824,402.816,304,416.304,304,432V480z"/>
			<path d="M109,380.128c16.312-11.616,27-30.632,27-52.128c0-35.288-28.712-64-64-64S8,292.712,8,328
				c0,21.496,10.688,40.512,27,52.128C14.504,388.456,0,408.552,0,432v64h144v-64C144,408.552,129.496,388.456,109,380.128z M24,328
				c0-26.472,21.528-48,48-48s48,21.528,48,48s-21.528,48-48,48S24,354.472,24,328z M41.056,480H16v-48
				c0-15.696,9.176-29.184,22.376-35.728l11.744,20.344L41.056,480z M57.224,480l8.144-56.984h13.256L86.776,480H57.224z
				 M80.952,407.016H63.048l-8.576-14.864C54.992,392.136,55.48,392,56,392h32c0.52,0,1.008,0.136,1.528,0.152L80.952,407.016z
				 M128,480h-25.056l-9.056-63.384l11.744-20.344C118.824,402.816,128,416.304,128,432V480z"/>
			<path d="M461,380.128c16.312-11.616,27-30.632,27-52.128c0-35.288-28.712-64-64-64c-35.288,0-64,28.712-64,64
				c0,21.496,10.688,40.512,27,52.128c-20.496,8.328-35,28.424-35,51.872v64h144v-64C496,408.552,481.496,388.456,461,380.128z
				 M376,328c0-26.472,21.528-48,48-48s48,21.528,48,48s-21.528,48-48,48S376,354.472,376,328z M393.056,480H368v-48
				c0-15.696,9.176-29.184,22.376-35.728l11.744,20.344L393.056,480z M409.232,480l8.136-56.984h13.256L438.776,480H409.232z
				 M432.952,407.016h-17.904l-8.576-14.864c0.52-0.016,1.008-0.152,1.528-0.152h32c0.52,0,1.008,0.136,1.528,0.152L432.952,407.016
				z M480,480h-25.056l-9.056-63.384l11.744-20.344C470.824,402.816,480,416.304,480,432V480z"/>
			<rect x="192" y="32" width="272" height="16"/>
			<rect x="448" y="128" width="16" height="16"/>
			<rect x="192" y="128" width="240" height="16"/>
			<rect x="192" y="80" width="272" height="16"/>
			<path d="M160,0v32H0v176h72v47.544L138.56,208H336v-32h21.04L424,233.392V176h72V0H160z M320,192H133.44L88,224.456V192H16V48
				h144v128h160V192z M480,160h-72v38.608L362.96,160H176V16h304V160z"/>
			<rect x="32" y="64" width="112" height="16"/>
			<rect x="128" y="160" width="16" height="16"/>
			<rect x="32" y="160" width="80" height="16"/>
			<rect x="32" y="112" width="112" height="16"/>
		</g>
	</g>
</g>
<g>
</g>
<g>
</g>
<g>
</g>
<g>
</g>
<g>
</g>
<g>
</g>
<g>
</g>
<g>
</g>
<g>
</g>
<g>
</g>
<g>
</g>
<g>
</g>
<g>
</g>
<g>
</g>
<g>
</g>
</svg>
