<?xml version="1.0" encoding="iso-8859-1"?>
<!-- Generator: Adobe Illustrator 17.1.0, SVG Export Plug-In . SVG Version: 6.00 Build 0)  -->
<!DOCTYPE svg PUBLIC "-//W3C//DTD SVG 1.1//EN" "http://www.w3.org/Graphics/SVG/1.1/DTD/svg11.dtd">
<svg xmlns="http://www.w3.org/2000/svg" xmlns:xlink="http://www.w3.org/1999/xlink" version="1.1" id="Capa_1" x="0px" y="0px" viewBox="0 0 470.232 470.232" style="enable-background:new 0 0 470.232 470.232;" xml:space="preserve" width="512px" height="512px">
<g>
	<path d="M121.547,113.6c31.31,0,56.784-25.481,56.784-56.802C178.332,25.479,152.858,0,121.547,0   c-31.319,0-56.8,25.479-56.8,56.798C64.748,88.118,90.228,113.6,121.547,113.6z" fill="#FFFFFF"/>
	<path d="M452.248,4.019H278.321c-5.921,0-10.738,4.817-10.738,10.738v184.895c0,5.921,4.817,10.738,10.738,10.738h7.097   l-11.984,7.513c-0.713-1.007-1.505-1.967-2.38-2.869l-84.587-87.219c-3.99-4.115-8.135-7.146-16.957-7.146   c-0.204,0-93.645,0.166-94.439,0.166c-8.811,0-16.312,6.208-19.814,14.309L9.207,241.634c-5.228,12.089,0.354,26.179,12.444,31.409   c3.023,1.306,6.21,1.968,9.473,1.968c9.541,0,18.151-5.658,21.936-14.414l12.634-29.216l0.062,212.539   c0,14.508,11.803,26.312,26.311,26.312s26.312-11.804,26.312-26.312V304.517h11.015V443.67c0,14.508,11.803,26.312,26.309,26.312   c14.508,0,26.311-11.804,26.311-26.312l0.083-251.734l54.659,56.359c4.537,4.681,10.628,7.258,17.15,7.258   c6.243,0,12.149-2.394,16.631-6.739c4.197-4.071,6.705-9.418,7.172-15.194l37.059-23.23h137.48c5.921,0,10.738-4.817,10.738-10.738   V14.757C462.986,8.836,458.168,4.019,452.248,4.019z M449.902,197.306H335.64l36.848-23.097c3.647-2.286,4.75-7.096,2.464-10.743   c-2.285-3.646-7.092-4.75-10.743-2.464l-57.917,36.304h-25.625V17.103h169.235V197.306z" fill="#FFFFFF"/>
	<path d="M292.025,144.239c1.408,0,2.827-0.453,4.022-1.388l23.989-18.744l18.755,15.872c2.193,1.855,4.976,2.739,7.847,2.491   c2.866-0.251,5.457-1.605,7.296-3.814l29.315-35.226l13.529,10.756c2.421,1.927,5.478,2.653,8.374,1.997   c2.901-0.656,5.345-2.627,6.702-5.408l32.571-66.733c1.585-3.246,0.237-7.163-3.01-8.748c-3.247-1.586-7.163-0.237-8.748,3.01   l-30.839,63.185l-12.16-9.667c-4.572-3.637-11.333-2.938-15.069,1.55l-29.188,35.071l-17.781-15.048   c-4.14-3.505-10.487-3.629-14.764-0.288l-24.875,19.437c-2.848,2.224-3.352,6.335-1.127,9.182   C288.156,143.376,290.08,144.239,292.025,144.239z" fill="#FFFFFF"/>
</g>
<g>
</g>
<g>
</g>
<g>
</g>
<g>
</g>
<g>
</g>
<g>
</g>
<g>
</g>
<g>
</g>
<g>
</g>
<g>
</g>
<g>
</g>
<g>
</g>
<g>
</g>
<g>
</g>
<g>
</g>
</svg>
