<?xml version="1.0" encoding="iso-8859-1"?>
<!-- Generator: Adobe Illustrator 19.0.0, SVG Export Plug-In . SVG Version: 6.00 Build 0)  -->
<svg version="1.1" id="Capa_1" xmlns="http://www.w3.org/2000/svg" xmlns:xlink="http://www.w3.org/1999/xlink" x="0px" y="0px"
	 viewBox="0 0 512 512" style="enable-background:new 0 0 512 512;" xml:space="preserve">
<path style="fill:#57555C;" d="M453.574,212.154l-127.28-127.28l53.033-53.033c5.858-5.858,15.355-5.858,21.213,0l107.066,106.066
	c5.858,5.858,5.858,15.355,0,21.213L453.574,212.154z"/>
<path style="fill:#787780;" d="M57.426,243.973L4.393,190.94c-5.858-5.858-5.858-15.355,0-21.213L114.163,63.661
	c5.858-5.858,15.355-5.858,21.213,0l53.033,53.033L57.426,243.973z"/>
<path style="fill:#FFAE34;" d="M440.21,331.584l0.212-0.212c13.152-13.152,13.152-34.365,0-47.517L282.809,126.24
	c-8.899-8.899-33.92-19.772-70.003-17.82c-21.985,0.813-30.053,2.617-45.609-12.94L36.214,222.76l17.609,17.609
	c1.585,2.02,3.522,10.027,4.423,15.713c4.829,30.447,10.554,39.008,22.145,53.282c0.021,0.021,0.031,0.031,0.052,0.052
	l165.252,165.252c13.181,13.181,34.55,13.179,47.73,0c13.181-13.181,13.181-34.549,0-47.73c13.181,13.181,34.55,13.179,47.73,0
	c13.181-13.181,16.883-34.549,3.703-47.73c13.181,13.181,34.55,13.179,47.73,0c13.181-13.181,13.181-34.549,0-47.73l0.106,0.106
	C405.844,344.736,427.057,344.736,440.21,331.584z"/>
<g>
	<path style="fill:#FEDB41;" d="M38.866,310.265L38.866,310.265c-13.18-13.18-13.18-34.55,0-47.73l37.123-37.123
		c13.18-13.18,34.549-13.18,47.73,0l0,0c13.18,13.18,13.18,34.549,0,47.73l-37.123,37.123
		C73.415,323.445,52.045,323.445,38.866,310.265z"/>
	<path style="fill:#FEDB41;" d="M86.596,357.994L86.596,357.994c-13.18-13.18-13.18-34.55,0-47.73l37.123-37.123
		c13.18-13.18,34.549-13.18,47.73,0l0,0c13.18,13.18,13.18,34.549,0,47.73l-37.123,37.123
		C121.145,371.175,99.775,371.175,86.596,357.994z"/>
	<path style="fill:#FEDB41;" d="M134.325,405.724L134.325,405.724c-13.18-13.18-13.18-34.55,0-47.73l37.123-37.123
		c13.18-13.18,34.549-13.18,47.73,0l0,0c13.18,13.18,13.18,34.549,0,47.73l-37.123,37.123
		C168.874,418.904,147.505,418.904,134.325,405.724z"/>
	<path style="fill:#FEDB41;" d="M182.055,453.454L182.055,453.454c-13.18-13.18-13.18-34.55,0-47.73l37.123-37.123
		c13.18-13.18,34.549-13.18,47.73,0l0,0c13.18,13.18,13.18,34.549,0,47.73l-37.123,37.123
		C216.604,466.634,195.234,466.634,182.055,453.454z"/>
	<path style="fill:#FEDB41;" d="M463.548,217.115c0.87-6.132,0.818-15.755,2.641-17.578l8.597-8.597L347.753,63.906
		c-7.09,3.076-18.429,4.042-30.49,4.955c-27.097,2.051-62.625,2.817-89.939,30.131c-17.576,17.576-29.294,29.294-46.87,46.87
		c-13.179,13.179-13.181,34.549,0,47.73s34.55,13.179,47.73,0l60.988-60.988c25.03,25.03-8.693-8.693,143.196,143.196
		C446.992,260.4,459.974,242.812,463.548,217.115z"/>
</g>
<g>
</g>
<g>
</g>
<g>
</g>
<g>
</g>
<g>
</g>
<g>
</g>
<g>
</g>
<g>
</g>
<g>
</g>
<g>
</g>
<g>
</g>
<g>
</g>
<g>
</g>
<g>
</g>
<g>
</g>
</svg>
