<?xml version="1.0" encoding="iso-8859-1"?>
<!-- Generator: Adobe Illustrator 19.0.0, SVG Export Plug-In . SVG Version: 6.00 Build 0)  -->
<svg version="1.1" id="Capa_1" xmlns="http://www.w3.org/2000/svg" xmlns:xlink="http://www.w3.org/1999/xlink" x="0px" y="0px"
	 viewBox="0 0 512.001 512.001" style="enable-background:new 0 0 512.001 512.001;" xml:space="preserve">
<rect x="10" y="430.25" style="fill:#898998;" width="176" height="54"/>
<g>
	<rect x="393.72" y="67.09" style="fill:#D8D8E4;" width="52.55" height="50.3"/>
	<rect x="265.25" y="32.25" style="fill:#D8D8E4;" width="137" height="48"/>
	<polygon style="fill:#D8D8E4;" points="170.806,242.925 266.056,78.451 220.078,56.252 101.524,202.925 	"/>
</g>
<g>
	<circle style="fill:#4DBAF6;" cx="249" cy="56.25" r="28"/>
	<path style="fill:#4DBAF6;" d="M448,56.252c0-15.464-12.536-28.504-28-28.504s-28,13.04-28,28.504s12.536,28,28,28
		S448,71.716,448,56.252z"/>
</g>
<polyline style="fill:#D8D8E4;" points="160.237,326.586 160.237,430.252 29.808,430.252 54.237,326.586 "/>
<circle style="fill:#EDF2FA;" cx="107.24" cy="276.25" r="72"/>
<circle style="fill:#4DBAF6;" cx="107.24" cy="276.25" r="28"/>
<path style="fill:#62CD4D;" d="M502,378.909c0,7.456-6.045,13.501-13.501,13.501h-39.622h-0.924c-5.011,0-8.221,5.418-5.722,9.762
	c2.259,3.928,3.552,8.483,3.552,13.341v1.113c0,14.809-12.005,26.814-26.814,26.814l0,0c-14.809,0-26.814-12.005-26.814-26.814
	v-1.113c0-4.858,1.292-9.413,3.552-13.341c2.498-4.343-0.712-9.762-5.722-9.762h-0.924h-39.622c-7.456,0-13.501-6.045-13.501-13.501
	v-39.603c0-4.841,5.088-8.064,9.418-5.901c3.6,1.798,7.662,2.81,11.96,2.81h1.113c14.809,0,26.814-12.005,26.814-26.814l0,0
	c0-14.809-12.005-26.814-26.814-26.814h-1.113c-4.298,0-8.36,1.012-11.96,2.81c-4.331,2.163-9.418-1.06-9.418-5.901v-39.648
	c0-7.456,6.045-13.501,13.501-13.501h40.546c5.011,0,8.221-5.418,5.722-9.762c-2.26-3.928-3.552-8.483-3.552-13.341v-1.113
	c0-14.809,12.005-26.814,26.814-26.814l0,0c14.809,0,26.814,12.005,26.814,26.814v1.113c0,4.858-1.292,9.413-3.552,13.341
	c-2.498,4.343,0.712,9.762,5.722,9.762h40.546c7.456,0,13.501,6.045,13.501,13.501L502,378.909L502,378.909z"/>
<path d="M218.59,150.422c-2.63,0-5.21,1.06-7.07,2.92c-1.86,1.87-2.93,4.44-2.93,7.08c0,2.63,1.07,5.2,2.93,7.07
	c1.86,1.859,4.44,2.92,7.07,2.92s5.21-1.061,7.07-2.92c1.86-1.87,2.93-4.44,2.93-7.07c0-2.64-1.07-5.21-2.93-7.08
	C223.8,151.482,221.22,150.422,218.59,150.422z"/>
<path d="M69.237,276.252c0,5.522,4.477,10,10,10s10-4.478,10-10c0-9.925,8.075-18,18-18s18,8.075,18,18s-8.075,18-18,18
	c-5.523,0-10,4.478-10,10s4.477,10,10,10c20.953,0,38-17.047,38-38s-17.047-38-38-38S69.237,255.299,69.237,276.252z"/>
<path d="M256.07,63.322c1.86-1.859,2.93-4.439,2.93-7.069s-1.07-5.21-2.93-7.07s-4.44-2.93-7.07-2.93s-5.21,1.069-7.07,2.93
	c-1.86,1.86-2.93,4.44-2.93,7.07s1.07,5.21,2.93,7.069c1.86,1.86,4.44,2.931,7.07,2.931C251.63,66.252,254.21,65.182,256.07,63.322z
	"/>
<path d="M420,66.252c2.63,0,5.21-1.07,7.07-2.931c1.86-1.859,2.93-4.439,2.93-7.069s-1.07-5.21-2.93-7.07s-4.43-2.93-7.07-2.93
	c-2.63,0-5.21,1.069-7.07,2.93c-1.86,1.86-2.93,4.44-2.93,7.07s1.07,5.21,2.93,7.069C414.79,65.182,417.37,66.252,420,66.252z"/>
<path d="M489.988,216.398l20.808-38.471c2.104-3.89,1.403-8.698-1.722-11.825l-52.798-52.847V67.576
	c1.119-3.578,1.724-7.382,1.724-11.324c0-21.231-17.047-38.504-38-38.504c-6.432,0-12.493,1.634-17.809,4.504H265.942
	c-5.105-2.554-10.856-4-16.942-4c-19.218,0-35.139,14.344-37.646,32.885L94.927,195.178c-39.396,5.957-69.69,40.043-69.69,81.074
	c0,19.583,6.909,37.577,18.405,51.693L21.89,420.252H10c-5.523,0-10,4.478-10,10v54c0,5.522,4.477,10,10,10h176h316
	c5.523,0,10-4.478,10-10s-4.477-10-10-10H196v-44c0-5.522-4.477-10-10-10h-15.763v-91.58c11.854-14.223,19-32.501,19-52.42
	c0-11.777-2.515-22.972-7.005-33.104l27.159-46.896c2.768-4.779,1.138-10.897-3.642-13.665c-4.78-2.769-10.897-1.137-13.666,3.642
	l-21.805,37.652c-12.366-14.86-29.875-25.285-49.768-28.538l96.225-119.047c6.124,9.822,16.6,16.657,28.712,17.786l-17.661,30.496
	c-2.768,4.779-1.137,10.897,3.642,13.665c1.578,0.914,3.301,1.349,5.002,1.349c3.451,0,6.809-1.789,8.663-4.99l25.683-44.348
	h112.945v23.003l-52.798,52.847c-3.125,3.127-3.825,7.936-1.722,11.825l20.78,38.419h-0.546c-12.958,0-23.501,10.543-23.501,23.501
	v39.647c0,5.788,2.942,11.063,7.87,14.11c4.895,3.026,10.882,3.303,16.016,0.737c2.333-1.165,4.854-1.756,7.492-1.756h1.114
	c9.271,0,16.814,7.543,16.814,16.814s-7.543,16.813-16.814,16.813h-1.113c-2.638,0-5.159-0.591-7.491-1.756
	c-5.135-2.564-11.123-2.288-16.017,0.737c-4.928,3.048-7.87,8.322-7.87,14.11v39.603c0,12.958,10.543,23.501,23.501,23.501h35.124
	c-1.584,4.165-2.408,8.61-2.408,13.104v1.113c0,20.299,16.515,36.813,36.814,36.813s36.814-16.515,36.814-36.813v-1.113
	c0-4.493-0.823-8.939-2.407-13.104h35.124c12.958,0,23.501-10.543,23.501-23.501V239.847C512,227.39,502.255,217.17,489.988,216.398
	z M403.724,90.582c4.937,2.35,10.455,3.67,16.276,3.67s11.34-1.32,16.276-3.67v16.812h-32.553V90.582H403.724z M438,56.252
	c0,9.925-8.075,18-18,18s-18-8.075-18-18c0-10.03,8.243-18.504,18-18.504S438,46.222,438,56.252z M176,474.252H20v-34h156V474.252z
	 M42.438,420.252l18.069-76.675c13.269,9.238,29.373,14.675,46.73,14.675c15.76,0,30.489-4.479,43-12.217v74.217H42.438z
	 M161.273,245.907c0.365,1.166,0.939,2.265,1.712,3.237c4.001,8.194,6.252,17.392,6.252,27.108c0,34.187-27.813,62-62,62
	s-62-27.813-62-62s27.813-62,62-62C130.405,214.252,150.632,227.034,161.273,245.907z M231,56.252c0-9.925,8.075-18,18-18
	c9.925,0,18,8.075,18,18s-8.075,18-18,18S231,66.177,231,56.252z M284.316,70.252c1.725-4.336,2.684-9.057,2.684-14
	s-0.959-9.664-2.684-14h100.296c-1.679,4.343-2.612,9.062-2.612,14c0,3.942,0.604,7.746,1.724,11.324v2.676H284.316z
	 M372.49,215.916l-22.149-40.95l47.528-47.572h44.264l47.528,47.572l-22.149,40.95c-0.076,0.141-0.136,0.287-0.205,0.43h-13.93
	c1.584-4.164,2.407-8.609,2.407-13.103v-1.113c0-20.3-16.515-36.814-36.814-36.814s-36.814,16.515-36.814,36.814v1.113
	c0,4.493,0.823,8.938,2.407,13.103h-11.866C372.626,216.203,372.566,216.058,372.49,215.916z M492,378.909
	c0,1.931-1.57,3.501-3.501,3.501H472v-43.322c0-5.522-4.477-10-10-10s-10,4.478-10,10v43.322h-4.047
	c-5.899,0-11.401,3.176-14.358,8.288c-2.983,5.157-2.995,11.31-0.033,16.46c1.453,2.524,2.22,5.414,2.22,8.355v1.113
	c0,9.271-7.542,16.813-16.814,16.813s-16.814-7.543-16.814-16.813v-1.113c0-2.94,0.768-5.83,2.22-8.354
	c2.963-5.15,2.951-11.304-0.031-16.46c-2.957-5.113-8.459-8.289-14.359-8.289h-40.546c-1.931,0-3.501-1.57-3.501-3.501v-34.484
	c3.649,1.189,7.458,1.79,11.378,1.79h1.113c20.3,0,36.814-16.515,36.814-36.813c0-20.3-16.515-36.814-36.814-36.814h-1.114
	c-3.92,0-7.729,0.601-11.378,1.79v-34.529c0-1.931,1.571-3.501,3.501-3.501h40.546c5.899,0,11.401-3.176,14.358-8.288
	c2.982-5.156,2.995-11.31,0.032-16.46c-1.453-2.524-2.22-5.414-2.22-8.354v-1.113c0-9.271,7.543-16.814,16.814-16.814
	s16.814,7.543,16.814,16.814v1.113c0,2.941-0.768,5.83-2.221,8.355c-2.962,5.15-2.949,11.304,0.033,16.46
	c2.958,5.111,8.459,8.287,14.358,8.287h40.546c1.931,0,3.501,1.57,3.501,3.501v139.06H492z"/>
<path d="M462,289.422c-2.63,0-5.21,1.07-7.07,2.93c-1.86,1.86-2.93,4.44-2.93,7.07s1.07,5.21,2.93,7.07
	c1.86,1.859,4.44,2.93,7.07,2.93s5.21-1.07,7.07-2.93c1.86-1.86,2.93-4.44,2.93-7.07s-1.07-5.21-2.93-7.07
	C467.21,290.493,464.63,289.422,462,289.422z"/>
<g>
</g>
<g>
</g>
<g>
</g>
<g>
</g>
<g>
</g>
<g>
</g>
<g>
</g>
<g>
</g>
<g>
</g>
<g>
</g>
<g>
</g>
<g>
</g>
<g>
</g>
<g>
</g>
<g>
</g>
</svg>
