<?xml version="1.0" encoding="iso-8859-1"?>
<!-- Generator: Adobe Illustrator 19.0.0, SVG Export Plug-In . SVG Version: 6.00 Build 0)  -->
<svg version="1.1" id="Capa_1" xmlns="http://www.w3.org/2000/svg" xmlns:xlink="http://www.w3.org/1999/xlink" x="0px" y="0px"
	 viewBox="0 0 512 512" style="enable-background:new 0 0 512 512;" xml:space="preserve">
<path style="fill:#00D8EF;" d="M327.499,400.999c-5.7,6-15.298,6-20.999,0l-50.5-49.2l-50.501,49.2c-5.7,6-15.298,6-20.999,0
	c-6-5.7-6-15.3,0-21l56.499-55.8V270.5c0-8.401,6.599-15,15-15s16,6.599,16,15v53.699l55.499,55.8
	C333.5,385.699,333.5,395.299,327.499,400.999z"/>
<path style="fill:#1689FC;" d="M256,105.5c-49.501,0-91,40.499-91,90v15c0,8.401,6.599,15,15,15h152c8.401,0,15-6.599,15-15v-15
	C347,145.999,305.501,105.5,256,105.5z"/>
<path style="fill:#415BE8;" d="M347,195.5v15c0,8.401-6.599,15-15,15h-76v-120C305.501,105.5,347,145.999,347,195.5z"/>
<path style="fill:#17ACE8;" d="M256,15.5c-32.999,0-61,27.001-61,60s28.001,60,61,60s61-27.001,61-60S288.999,15.5,256,15.5z"/>
<g>
	<path style="fill:#1689FC;" d="M317,75.5c0,32.999-28.001,60-61,60v-120C288.999,15.5,317,42.501,317,75.5z"/>
	<path style="fill:#1689FC;" d="M90,375.5c-49.501,0-90,41.499-90,91v15c0,8.401,6.599,15,15,15h150c8.401,0,15-6.599,15-15v-15
		C180,416.999,139.501,375.5,90,375.5z"/>
</g>
<path style="fill:#415BE8;" d="M180,466.5v15c0,8.401-6.599,15-15,15H90v-121C139.501,375.5,180,416.999,180,466.5z"/>
<path style="fill:#17ACE8;" d="M90,285.5c-32.999,0-60,27.001-60,60s27.001,60,60,60s60-27.001,60-60S122.999,285.5,90,285.5z"/>
<g>
	<path style="fill:#1689FC;" d="M150,345.5c0,32.999-27.001,60-60,60v-120C122.999,285.5,150,312.501,150,345.5z"/>
	<path style="fill:#1689FC;" d="M422,375.5c-49.501,0-90,41.499-90,91v15c0,8.401,6.599,15,15,15h150c8.401,0,15-6.599,15-15v-15
		C512,416.999,471.501,375.5,422,375.5z"/>
</g>
<path style="fill:#415BE8;" d="M512,466.5v15c0,8.401-6.599,15-15,15h-75v-121C471.501,375.5,512,416.999,512,466.5z"/>
<path style="fill:#17ACE8;" d="M422,285.5c-32.999,0-60,27.001-60,60s27.001,60,60,60s60-27.001,60-60S454.999,285.5,422,285.5z"/>
<path style="fill:#1689FC;" d="M482,345.5c0,32.999-27.001,60-60,60v-120C454.999,285.5,482,312.501,482,345.5z"/>
<path style="fill:#00B5F1;" d="M327.499,400.999c-5.7,6-15.298,6-20.999,0l-50.5-49.2V255.5c8.401,0,16,6.599,16,15v53.699
	l55.499,55.8C333.5,385.699,333.5,395.299,327.499,400.999z"/>
<g>
</g>
<g>
</g>
<g>
</g>
<g>
</g>
<g>
</g>
<g>
</g>
<g>
</g>
<g>
</g>
<g>
</g>
<g>
</g>
<g>
</g>
<g>
</g>
<g>
</g>
<g>
</g>
<g>
</g>
</svg>
