<?xml version="1.0" encoding="iso-8859-1"?>
<!-- Generator: Adobe Illustrator 19.0.0, SVG Export Plug-In . SVG Version: 6.00 Build 0)  -->
<svg version="1.1" id="Capa_1" xmlns="http://www.w3.org/2000/svg" xmlns:xlink="http://www.w3.org/1999/xlink" x="0px" y="0px"
	 viewBox="0 0 512 512" style="enable-background:new 0 0 512 512;" xml:space="preserve">
<g>
	<g>
		<path d="M465.516,373.243C475.72,362.482,482,347.965,482,332c0-23.755-13.878-44.33-33.951-54.044
			c-12.647-62.038-54.897-114.907-112.431-140.387c-8.304-14.74-20.657-26.974-35.618-35.241C310.967,91.076,317,76.475,317,61
			c0-33.065-27.935-61-61-61s-61,27.935-61,61c0,15.475,6.033,30.076,17.001,41.328c-14.931,8.25-27.298,20.472-35.618,35.241
			C118.85,163.049,76.6,215.918,63.952,277.956C43.878,287.67,30,308.245,30,332c0,15.965,6.28,30.482,16.484,41.243
			C18.79,388.606,0,418.148,0,452v15c0,8.284,6.716,15,15,15h136.18c30.788,19.37,67.818,30,104.82,30s74.032-10.63,104.82-30H497
			c8.284,0,15-6.716,15-15v-15C512,418.148,493.21,388.606,465.516,373.243z M452,332c0,16.542-13.458,30-30,30s-30-13.458-30-30
			s13.458-30,30-30S452,315.458,452,332z M256,30c16.514,0,31,14.486,31,31c0,16.262-14.196,30-31,30c-16.804,0-31-13.738-31-30
			C225,44.486,239.486,30,256,30z M256,121c33.636,0,61,26.916,61,60H195C195,147.916,222.364,121,256,121z M90,302
			c16.542,0,30,13.458,30,30s-13.458,30-30,30s-30-13.458-30-30S73.458,302,90,302z M30,452c0-33.084,26.916-60,60-60
			s60,26.916,60,60H30z M332,452v11.881C308.787,475.644,282.401,482,256,482s-52.787-6.356-76-18.119V452
			c0-33.852-18.79-63.394-46.484-78.757C143.72,362.482,150,347.965,150,332c0-31.006-23.642-56.594-53.845-59.686
			c10.89-38.864,35.614-72.604,68.925-94.52c-0.038,1.067-0.08,2.133-0.08,3.206v15c0,8.284,6.716,15,15,15h152
			c8.284,0,15-6.716,15-15v-15c0-1.073-0.042-2.139-0.08-3.206c33.312,21.916,58.035,55.656,68.925,94.52
			C385.642,275.406,362,300.994,362,332c0,15.965,6.28,30.482,16.484,41.243C350.79,388.606,332,418.148,332,452z M362,452
			c0-33.084,26.916-60,60-60s60,26.916,60,60H362z"/>
	</g>
</g>
<g>
</g>
<g>
</g>
<g>
</g>
<g>
</g>
<g>
</g>
<g>
</g>
<g>
</g>
<g>
</g>
<g>
</g>
<g>
</g>
<g>
</g>
<g>
</g>
<g>
</g>
<g>
</g>
<g>
</g>
</svg>
