<?xml version="1.0" encoding="iso-8859-1"?>
<!-- Generator: Adobe Illustrator 19.0.0, SVG Export Plug-In . SVG Version: 6.00 Build 0)  -->
<svg version="1.1" id="Capa_1" xmlns="http://www.w3.org/2000/svg" xmlns:xlink="http://www.w3.org/1999/xlink" x="0px" y="0px"
	 viewBox="0 0 512.001 512.001" style="enable-background:new 0 0 512.001 512.001;" xml:space="preserve">
<path style="fill:#17ACE8;" d="M409.79,441.802c-93.598,93.598-245.694,93.598-339.59,0c-93.6-93.598-93.6-245.694,0-339.592
	c93.598-93.598,245.694-93.598,339.59,0C503.389,195.807,503.389,347.903,409.79,441.802z"/>
<path style="fill:#1689FC;" d="M409.79,441.802c-93.598,93.598-245.694,93.598-339.59,0L409.79,102.21
	C503.389,195.807,503.389,347.903,409.79,441.802z"/>
<path style="fill:#CAE8F9;" d="M449.99,272.006c0,58.199-23.4,110.397-61.499,148.497c-38.1,38.098-90.298,61.499-148.497,61.499
	s-110.397-23.4-148.497-61.499c-38.098-38.1-61.499-90.298-61.499-148.497S53.4,161.609,91.498,123.51
	c38.1-38.1,90.298-61.499,148.497-61.499S350.392,85.41,388.491,123.51S449.99,213.808,449.99,272.006z"/>
<path style="fill:#B7E0F6;" d="M449.99,272.006c0,58.199-23.4,110.397-61.499,148.497c-38.1,38.098-90.298,61.499-148.497,61.499
	s-110.397-23.4-148.497-61.499l296.994-296.994C426.59,161.61,449.99,213.808,449.99,272.006z"/>
<path style="fill:#FD3C65;" d="M356.693,155.309c-29.999-29.699-71.098-48.299-116.697-48.299
	c-90.899,0-164.996,74.097-164.996,164.996c0,45.598,18.6,86.698,48.299,116.697c29.999,29.699,71.098,48.299,116.697,48.299
	c90.899,0,164.996-74.099,164.996-164.996C404.991,226.407,386.392,185.308,356.693,155.309z"/>
<path style="fill:#FD003A;" d="M404.991,272.006c0,90.897-74.097,164.996-164.996,164.996c-45.6,0-86.698-18.6-116.697-48.299
	l233.395-233.396C386.392,185.308,404.991,226.407,404.991,272.006z"/>
<path style="fill:#CAE8F9;" d="M335.392,176.609c-24.599-24.599-58.199-39.599-95.398-39.599
	c-74.397,0-134.997,60.598-134.997,134.997c0,37.199,15,70.798,39.599,95.398s58.199,39.599,95.398,39.599
	c74.397,0,134.997-60.6,134.997-134.997C374.991,234.808,359.992,201.209,335.392,176.609z"/>
<path style="fill:#B7E0F6;" d="M374.991,272.006c0,74.397-60.6,134.997-134.997,134.997c-37.199,0-70.798-15-95.398-39.599
	l190.796-190.796C359.992,201.209,374.991,234.808,374.991,272.006z"/>
<path style="fill:#FD3C65;" d="M303.593,208.408c-16.199-16.201-38.999-26.399-63.598-26.399c-49.5,0-89.998,40.498-89.998,89.998
	c0,24.599,10.201,47.398,26.399,63.599c16.199,16.199,38.999,26.399,63.599,26.399c49.5,0,89.998-40.5,89.998-89.998
	C329.992,247.407,319.793,224.607,303.593,208.408z"/>
<path style="fill:#FD003A;" d="M329.992,272.006c0,49.498-40.498,89.998-89.998,89.998c-24.599,0-47.4-10.201-63.599-26.399
	l127.197-127.197C319.793,224.607,329.992,247.407,329.992,272.006z"/>
<path style="fill:#787780;" d="M385.491,147.509L250.494,282.506c-5.7,6-15.298,6-20.998,0c-6-5.7-6-15.3,0-21L364.492,126.51
	c5.7-5.999,15.298-5.999,20.999,0C391.491,132.208,391.491,141.809,385.491,147.509z"/>
<path style="fill:#57555C;" d="M385.491,147.509L250.494,282.506c-5.7,6-15.298,6-20.998,0L385.491,126.51
	C391.491,132.208,391.491,141.809,385.491,147.509z"/>
<path style="fill:#1689FC;" d="M510.789,71.311c-2.401-5.7-7.8-9.3-13.801-9.3H449.99V15.012c0-6-3.6-11.4-9.3-13.801
	c-5.7-2.401-12.001-1.199-16.199,3.3L364.492,66.51c-3.001,2.701-4.501,6.601-4.501,10.501v59.999c0,4.2,1.8,7.8,4.2,10.8
	c2.999,2.401,6.599,4.2,10.8,4.2h59.999c3.9,0,7.8-1.5,10.499-4.501l61.999-59.999C511.988,83.31,513.188,77.011,510.789,71.311z"/>
<path style="fill:#415BE8;" d="M507.488,87.511l-61.999,59.999c-2.699,3.001-6.599,4.501-10.499,4.501h-59.999
	c-4.2,0-7.8-1.8-10.8-4.2l85.798-85.798h46.999c6,0,11.4,3.6,13.801,9.3C513.188,77.011,511.988,83.31,507.488,87.511z"/>
<g>
</g>
<g>
</g>
<g>
</g>
<g>
</g>
<g>
</g>
<g>
</g>
<g>
</g>
<g>
</g>
<g>
</g>
<g>
</g>
<g>
</g>
<g>
</g>
<g>
</g>
<g>
</g>
<g>
</g>
</svg>
