<?xml version="1.0" encoding="iso-8859-1"?>
<!-- Generator: Adobe Illustrator 19.0.0, SVG Export Plug-In . SVG Version: 6.00 Build 0)  -->
<svg version="1.1" id="Capa_1" xmlns="http://www.w3.org/2000/svg" xmlns:xlink="http://www.w3.org/1999/xlink" x="0px" y="0px"
	 viewBox="0 0 512 512" style="enable-background:new 0 0 512 512;" xml:space="preserve">
<path style="fill:#084F6D;" d="M223.709,240v75c24.853,0,45-20.147,45-45L223.709,240z"/>
<path style="fill:#116F97;" d="M238.709,270l-15-30l-45,30c0,24.853,20.147,45,45,45C231.993,315,238.709,294.853,238.709,270z"/>
<path style="fill:#FFCB63;" d="M248.709,150h-30l20,120h30V170C268.709,158.954,259.754,150,248.709,150z"/>
<path style="fill:#FFE2A8;" d="M218.709,150h-20c-11.046,0-20,8.954-20,20v100h60V170C238.709,158.954,229.754,150,218.709,150z"/>
<path style="fill:#9DB55F;" d="M103.709,240v75c24.853,0,45-20.147,45-45L103.709,240z"/>
<path style="fill:#B9D171;" d="M118.709,270l-15-30l-45,30c0,24.853,20.147,45,45,45C111.993,315,118.709,294.853,118.709,270z"/>
<path style="fill:#DBF4FF;" d="M128.709,150h-30l20,120h30V170C148.709,158.954,139.754,150,128.709,150z"/>
<path style="fill:#FFFFFF;" d="M98.709,150h-20c-11.046,0-20,8.954-20,20v100h60V170C118.709,158.954,109.754,150,98.709,150z"/>
<path style="fill:#FFB4A9;" d="M103.709,30v90c24.853,0,45-20.147,45-45S128.561,30,103.709,30z"/>
<path style="fill:#FFD9D4;" d="M118.709,75c0-24.853-6.716-45-15-45c-24.853,0-45,20.147-45,45s20.147,45,45,45
	C111.993,120,118.709,99.853,118.709,75z"/>
<path style="fill:#7DD9FF;" d="M393.418,113.502l-30.198,75.319H504.5C486.82,144.785,443.787,113.634,393.418,113.502z"/>
<path style="fill:#49C9FF;" d="M504.239,278.822l-141.45,24.68l30.076,50C443.214,353.632,486.318,322.732,504.239,278.822z"/>
<path style="fill:#7DD9FF;" d="M504.238,278.822c-17.92,26.27-61.025,44.76-111.375,44.68l-30.075-44.68H504.238z"/>
<path style="fill:#2DADE3;" d="M288.632,218.492l-278.57,0.009c-1.66,4.69-2.56,9.74-2.56,15c0,24.85,20.14,45,45,45l236.13-0.009
	V218.492z M37.5,233.502c0-8.284,6.716-15,15-15s15,6.716,15,15s-6.716,15-15,15S37.5,241.786,37.5,233.502z"/>
<path style="fill:#49C9FF;" d="M37.499,233.502c0-8.284,6.716-15,15.001-15s15.001,6.715,15.001,15
	c0,8.278-6.706,14.99-14.983,14.999l236.114-0.009v-60l-236.13,0.009c-19.6,0-36.26,12.52-42.44,30
	c6.176,17.47,22.821,29.985,42.406,29.999C44.199,248.484,37.499,241.776,37.499,233.502z"/>
<path style="fill:#2DADE3;" d="M393.418,113.502c-32.89,0.16-62.726,13.57-84.296,35.14l-39.86,39.85h-0.63v90l39.86,39.85
	c21.71,21.72,51.785,35.15,84.926,35.15V113.502z"/>
<polygon style="fill:#7DD9FF;" points="363.108,248.822 355.608,233.822 363.108,218.822 363.108,188.822 333.108,188.822 
	333.108,218.822 340.608,233.822 333.108,248.822 333.108,278.822 363.108,278.822 "/>
<rect x="333.11" y="218.82" style="fill:#FFFFFF;" width="30" height="30"/>
<path style="fill:#C27749;" d="M266.138,60l-42.429-20v80c24.853,0,45-20.147,45-45C268.709,69.739,267.797,64.693,266.138,60z"/>
<path style="fill:#40211D;" d="M223.709,30l14.143,30h28.286C259.959,42.524,243.3,30,223.709,30z"/>
<path style="fill:#E18F4E;" d="M237.852,60l-42.429-19.99C185.23,48.26,178.709,60.866,178.709,75c0,24.853,20.147,45,45,45
	c8.284,0,15-20.147,15-45C238.709,69.739,238.405,64.693,237.852,60z"/>
<path style="fill:#60312C;" d="M223.709,60h14.143c-2.06-17.476-7.613-30-14.143-30c-10.719,0-20.557,3.754-28.286,10.01
	C199.54,51.661,210.638,60,223.709,60z"/>
<path d="M103.709,127.499c28.948,0,52.5-23.551,52.5-52.5s-23.552-52.5-52.5-52.5s-52.5,23.551-52.5,52.5
	S74.761,127.499,103.709,127.499z M103.709,37.499c20.678,0,37.5,16.822,37.5,37.5s-16.822,37.5-37.5,37.5s-37.5-16.822-37.5-37.5
	S83.031,37.499,103.709,37.499z"/>
<path d="M363.106,181.32h-30c-4.143,0-7.5,3.358-7.5,7.5v90c0,4.142,3.357,7.5,7.5,7.5h30c4.143,0,7.5-3.358,7.5-7.5v-90
	C370.606,184.678,367.249,181.32,363.106,181.32z M340.606,226.32h15v15h-15V226.32z M355.606,196.32v15h-15v-15H355.606z
	 M340.606,271.32v-15h15v15H340.606z"/>
<path d="M504.241,271.32H400.288v-75H504.5c2.49,0,4.818-1.236,6.213-3.299c1.396-2.063,1.675-4.684,0.747-6.995
	c-9.354-23.298-25.254-43.182-45.979-57.5c-21.232-14.668-46.144-22.457-72.063-22.524c-34.055,0-66.071,13.265-90.151,37.349
	l-27.058,27.052V170c0-15.164-12.337-27.5-27.5-27.5h-50c-15.163,0-27.5,12.336-27.5,27.5v11.003h-15V170
	c0-15.164-12.337-27.5-27.5-27.5h-50c-15.163,0-27.5,12.336-27.5,27.5v11.036C22.857,181.725,0,204.986,0,233.501
	c0,28.949,23.552,52.5,52.5,52.5h1.203c2.532,7.934,6.874,14.983,12.506,20.723V472c0,3.228,2.065,6.094,5.128,7.115l30,10
	c0.787,0.262,1.587,0.387,2.373,0.387c3.141,0,6.066-1.988,7.114-5.13c1.31-3.93-0.813-8.177-4.743-9.487l-24.872-8.291v-149.17
	c6.861,3.261,14.504,5.076,22.5,5.076c8.01,0,15.65-1.8,22.5-5.043V472c0,3.228,2.065,6.094,5.128,7.115l30,10
	c0.787,0.262,1.587,0.387,2.373,0.387c3.141,0,6.066-1.988,7.114-5.13c1.31-3.93-0.813-8.177-4.743-9.487l-24.872-8.291V306.772
	c5.639-5.746,9.986-12.809,12.517-20.771h19.977c2.532,7.934,6.874,14.983,12.506,20.723V472c0,3.228,2.065,6.094,5.128,7.115l30,10
	c0.787,0.262,1.587,0.387,2.373,0.387c3.141,0,6.066-1.988,7.114-5.13c1.31-3.93-0.813-8.177-4.743-9.487l-24.872-8.291v-149.17
	c6.861,3.261,14.504,5.076,22.5,5.076c8.01,0,15.65-1.8,22.5-5.043V472c0,3.228,2.065,6.094,5.128,7.115l30,10
	c0.787,0.262,1.587,0.387,2.373,0.387c3.141,0,6.066-1.988,7.114-5.13c1.31-3.93-0.813-8.177-4.743-9.487l-24.872-8.291V306.772
	c4.105-4.183,7.525-9.063,10.058-14.483l31.369,31.363C326.715,347.737,358.732,361,392.769,361c0.115,0,0.227,0,0.342,0
	c25.765-0.001,50.585-7.649,71.793-22.129c20.795-14.198,36.799-33.983,46.282-57.217c0.943-2.313,0.674-4.943-0.719-7.017
	C509.073,272.564,506.739,271.32,504.241,271.32z M186.209,169.999c0-6.893,5.607-12.5,12.5-12.5h50c6.893,0,12.5,5.607,12.5,12.5
	v11.003h-44.975c-0.007-0.335-0.025-0.667-0.025-1.003c0-4.142-3.357-7.5-7.5-7.5s-7.5,3.358-7.5,7.5
	c0,0.336,0.02,0.668,0.025,1.003h-15.025L186.209,169.999L186.209,169.999z M129.121,297.607c-0.272,0.211-0.532,0.438-0.773,0.684
	c-6.631,5.768-15.279,9.208-24.639,9.208c-9.538,0-18.375-3.602-25.074-9.615c-0.02-0.017-0.039-0.036-0.059-0.053
	c-3.649-3.289-6.654-7.299-8.792-11.83h67.864C135.565,290.433,132.651,294.361,129.121,297.607z M198.635,297.884
	c-0.02-0.017-0.039-0.036-0.059-0.053c-3.649-3.289-6.654-7.299-8.792-11.83h67.864c-2.083,4.432-4.997,8.36-8.527,11.606
	c-0.272,0.211-0.532,0.438-0.773,0.684c-6.631,5.768-15.279,9.208-24.639,9.208C214.171,307.499,205.333,303.897,198.635,297.884z
	 M393.092,346.001c-0.099,0-0.205,0-0.304,0c-30.049,0-58.299-11.703-79.546-32.954l-39.856-39.849
	c-1.406-1.406-3.313-2.196-5.303-2.196h-88.462c-0.016,0-120.001,0-120.001,0c-0.016,0-7.12,0-7.12,0
	c-20.678,0-37.5-16.822-37.5-37.5c0-20.677,16.822-37.499,37.5-37.499h30.834c7.063,26.174,30.999,45.497,59.375,45.497h36
	c4.143,0,7.5-3.358,7.5-7.5s-3.357-7.5-7.5-7.5h-36c-25.641,0-46.5-20.86-46.5-46.5c0-4.142-3.357-7.5-7.5-7.5s-7.5,3.358-7.5,7.5
	c0,0.336,0.02,0.668,0.025,1.003H66.209V170c0-6.893,5.607-12.5,12.5-12.5h50c6.893,0,12.5,5.607,12.5,12.5v11.003h-21.832
	c-4.143,0-7.5,3.358-7.5,7.5s3.357,7.5,7.5,7.5h83.957c7.063,26.174,30.999,45.497,59.375,45.497h36c4.143,0,7.5-3.358,7.5-7.5
	s-3.357-7.5-7.5-7.5h-36c-20.02,0-37.124-12.717-43.661-30.497h49.665c0.507,0,1.008-0.053,1.497-0.152
	c0.065-0.013,0.127-0.033,0.191-0.048c0.175-0.04,0.35-0.081,0.521-0.134c0.079-0.024,0.154-0.056,0.232-0.083
	c0.155-0.053,0.31-0.105,0.46-0.168c0.06-0.025,0.117-0.057,0.177-0.084c0.165-0.074,0.329-0.149,0.488-0.235
	c0.02-0.011,0.039-0.024,0.059-0.035c0.609-0.337,1.176-0.755,1.677-1.256l39.857-39.849c21.248-21.251,49.498-32.956,79.525-32.956
	c42.277,0.111,80.172,23.444,99.406,60.319h-92.517v-37.82c0-4.142-3.357-7.5-7.5-7.5s-7.5,3.358-7.5,7.5v180
	c0,4.142,3.357,7.5,7.5,7.5s7.5-3.358,7.5-7.5v-37.18h92.179C473.066,322.938,435.219,346.001,393.092,346.001z"/>
<path d="M52.5,211.002c-12.407,0-22.501,10.093-22.501,22.5s10.094,22.5,22.501,22.5s22.501-10.094,22.501-22.5
	C75.001,221.095,64.907,211.002,52.5,211.002z M52.5,241.002c-4.136,0-7.501-3.365-7.501-7.5s3.365-7.5,7.501-7.5
	s7.501,3.364,7.501,7.5C60.001,237.637,56.636,241.002,52.5,241.002z"/>
<path d="M223.709,127.499c28.948,0,52.5-23.551,52.5-52.5s-23.552-52.5-52.5-52.5s-52.5,23.551-52.5,52.5
	S194.761,127.499,223.709,127.499z M253.688,52.499h-29.979c-7.615,0-14.583-3.859-18.693-9.988
	c5.508-3.181,11.889-5.012,18.693-5.012C235.951,37.499,246.84,43.397,253.688,52.499z M193.72,52.51
	c6.96,9.252,18,14.989,29.989,14.989h36.745c0.494,2.424,0.755,4.932,0.755,7.5c0,20.678-16.822,37.5-37.5,37.5
	s-37.5-16.822-37.5-37.5C186.209,66.569,189.007,58.78,193.72,52.51z"/>
<g>
</g>
<g>
</g>
<g>
</g>
<g>
</g>
<g>
</g>
<g>
</g>
<g>
</g>
<g>
</g>
<g>
</g>
<g>
</g>
<g>
</g>
<g>
</g>
<g>
</g>
<g>
</g>
<g>
</g>
</svg>
