<?xml version="1.0" encoding="UTF-8" standalone="no"?>
<svg
   xmlns:dc="http://purl.org/dc/elements/1.1/"
   xmlns:cc="http://creativecommons.org/ns#"
   xmlns:rdf="http://www.w3.org/1999/02/22-rdf-syntax-ns#"
   xmlns:svg="http://www.w3.org/2000/svg"
   xmlns="http://www.w3.org/2000/svg"
   viewBox="0 0 63 143.21249"
   height="143.21249"
   width="63"
   xml:space="preserve"
   version="1.1"
   id="svg2"><metadata
     id="metadata8"><rdf:RDF><cc:Work
         rdf:about=""><dc:format>image/svg+xml</dc:format><dc:type
           rdf:resource="http://purl.org/dc/dcmitype/StillImage" /><dc:title></dc:title></cc:Work></rdf:RDF></metadata><defs
     id="defs6"><clipPath
       id="clipPath18"
       clipPathUnits="userSpaceOnUse"><path
         id="path20"
         d="m 275.945,28.6719 -29.961,9.9179 c 0,0 3.821,151.6402 -50.867,162.2582 -36.062,41.785 5.551,1784.892 136.559,5.972 0,0 -44.84,-22.515 -53.328,-60.75 -8.485,-38.261 -2.403,-117.3981 -2.403,-117.3981 z" /></clipPath><linearGradient
       id="linearGradient22"
       spreadMethod="pad"
       gradientTransform="matrix(344.394,-116.194,-104.815,-309.067,77.7619,575.995)"
       gradientUnits="userSpaceOnUse"
       y2="0"
       x2="1"
       y1="0"
       x1="0"><stop
         id="stop24"
         offset="0"
         style="stop-opacity:1;stop-color:#929669" /><stop
         id="stop26"
         offset="0.230769"
         style="stop-opacity:1;stop-color:#929669" /><stop
         id="stop28"
         offset="1"
         style="stop-opacity:1;stop-color:#fdfcf1" /></linearGradient><clipPath
       id="clipPath36"
       clipPathUnits="userSpaceOnUse"><path
         id="path38"
         d="m 292.098,175.105 c 0,0 260.343,171.469 199.351,527.575 -58.738,258.718 -197.418,343.77 -212.32,376.24 -16.406,22.98 -32.93,63.71 -32.93,63.71 l 11.074,-720.864 c 0,0 -22.906,-220.11 34.825,-246.661 z" /></clipPath><linearGradient
       id="linearGradient40"
       spreadMethod="pad"
       gradientTransform="matrix(241.166,-936.211,-1007.33,-161.502,203.932,1135.85)"
       gradientUnits="userSpaceOnUse"
       y2="0"
       x2="1"
       y1="0"
       x1="0"><stop
         id="stop42"
         offset="0"
         style="stop-opacity:1;stop-color:#45aa3a" /><stop
         id="stop44"
         offset="1"
         style="stop-opacity:1;stop-color:#3d9439" /></linearGradient><clipPath
       id="clipPath52"
       clipPathUnits="userSpaceOnUse"><path
         id="path54"
         d="m 230.742,165.523 c 0,0 -244.2108,166.598 -230.159969,460.543 C 14.6367,920.02 187.121,1064.55 220.715,1090.77 c 21.719,23.15 22.617,32.07 24.297,54.91 15.222,-32.7 12.691,-488.422 14.304,-541.688 6.258,-207.351 -11.484,-399.328 -28.574,-438.469 z" /></clipPath><linearGradient
       id="linearGradient56"
       spreadMethod="pad"
       gradientTransform="matrix(422.095,95.9042,131.897,-394.11,-25.0834,595.855)"
       gradientUnits="userSpaceOnUse"
       y2="0"
       x2="1"
       y1="0"
       x1="0"><stop
         id="stop58"
         offset="0"
         style="stop-opacity:1;stop-color:#41a83b" /><stop
         id="stop60"
         offset="1"
         style="stop-opacity:1;stop-color:#5ebc44" /></linearGradient></defs><g
     transform="matrix(1.25,0,0,-1.25,0,143.2125)"
     id="g10"><g
       transform="scale(0.1,0.1)"
       id="g12"><g
         id="g14"><g
           clip-path="url(#clipPath18)"
           id="g16"><path
             id="path30"
             style="fill:url(#linearGradient22);fill-opacity:1;fill-rule:nonzero;stroke:none"
             d="m 275.945,28.6719 -29.961,9.9179 c 0,0 3.821,151.6402 -50.867,162.2582 -36.062,41.785 5.551,1784.892 136.559,5.972 0,0 -44.84,-22.515 -53.328,-60.75 -8.485,-38.261 -2.403,-117.3981 -2.403,-117.3981" /></g></g><g
         id="g32"><g
           clip-path="url(#clipPath36)"
           id="g34"><path
             id="path46"
             style="fill:url(#linearGradient40);fill-opacity:1;fill-rule:nonzero;stroke:none"
             d="m 292.098,175.105 c 0,0 260.343,171.469 199.351,527.575 -58.738,258.718 -197.418,343.77 -212.32,376.24 -16.406,22.98 -32.93,63.71 -32.93,63.71 l 11.074,-720.864 c 0,0 -22.906,-220.11 34.825,-246.661" /></g></g><g
         id="g48"><g
           clip-path="url(#clipPath52)"
           id="g50"><path
             id="path62"
             style="fill:url(#linearGradient56);fill-opacity:1;fill-rule:nonzero;stroke:none"
             d="m 230.742,165.523 c 0,0 -244.2108,166.598 -230.159969,460.543 C 14.6367,920.02 187.121,1064.55 220.715,1090.77 c 21.719,23.15 22.617,32.07 24.297,54.91 15.222,-32.7 12.691,-488.422 14.304,-541.688 6.258,-207.351 -11.484,-399.328 -28.574,-438.469" /></g></g><path
         id="path78"
         style="fill:#c0bdba;fill-opacity:1;fill-rule:nonzero;stroke:none"
         d="m 4137.01,270.969 13.92,0 c 11.25,0 15.53,3.926 15.53,14.097 0,10.344 -4.11,13.747 -16.78,13.747 l -12.67,0 0,-27.844 z m 29.63,-43.727 -16.42,35.344 -13.21,0 0,-35.344 -9.64,0 0,80.317 23.75,0 c 17.66,0 24.98,-7.86 24.98,-22.493 0,-11.769 -5.54,-19.269 -15.88,-21.421 l 16.95,-36.403 -10.53,0 z m -15.52,97.973 c -32.32,0 -58.01,-25.516 -58.01,-57.992 0,-31.942 25.69,-57.649 57.82,-57.649 31.95,0 57.65,25.707 57.65,57.649 0,32.652 -24.98,57.992 -57.46,57.992 z m -0.19,-121.352 c -35.69,0 -63.53,27.844 -63.53,63.532 0,35.878 27.84,63.531 63.72,63.531 34.98,0 63.34,-28.016 63.34,-62.629 0,-36.227 -27.83,-64.434 -63.53,-64.434" /></g></g></svg>