<?xml version="1.0" encoding="UTF-8" standalone="no"?>
<svg
   xmlns:dc="http://purl.org/dc/elements/1.1/"
   xmlns:cc="http://creativecommons.org/ns#"
   xmlns:rdf="http://www.w3.org/1999/02/22-rdf-syntax-ns#"
   xmlns:svg="http://www.w3.org/2000/svg"
   xmlns="http://www.w3.org/2000/svg"
   id="svg2"
   preserveAspectRatio="xMinYMin meet"
   version="1.1"
   viewBox="0 0 122 108"
   height="108"
   width="122">
  <metadata
     id="metadata22">
    <rdf:RDF>
      <cc:Work
         rdf:about="">
        <dc:format>image/svg+xml</dc:format>
        <dc:type
           rdf:resource="http://purl.org/dc/dcmitype/StillImage" />
        <dc:title></dc:title>
      </cc:Work>
    </rdf:RDF>
  </metadata>
  <defs
     id="defs20" />
  <g
     style="fill:#009900"
     id="g4">
    <path
       id="path8"
       d="m 30.574795,0.65364419 -3.05408,5.69916921 -23.6191,42.9260356 -3.05408,5.419101 3.05408,5.414655 23.6191,41.539035 3.19189,5.69472 61.82399,0 3.05407,-6.25041 17.644315,-35.564244 7.91749,-16.115045 -17.91993,0 -45.148805,0.137811 c -5.87255,-0.08002 -11.27386,5.24128 -11.27386,11.113824 0,5.872545 5.40131,11.19829 11.27386,11.113825 l 27.22887,-0.137812 -6.6683,13.474401 -35.00854,0 -17.36869,-30.563017 17.5065,-31.6744 37.2402,0 8.68212,17.817684 22.369915,0 -14.101225,-33.7904724 -3.05853,-6.25486041 -64.33126,0" />
  </g>
</svg>
