<?xml version="1.0" encoding="UTF-8" standalone="no"?>
<svg
   xmlns:dc="http://purl.org/dc/elements/1.1/"
   xmlns:cc="http://creativecommons.org/ns#"
   xmlns:rdf="http://www.w3.org/1999/02/22-rdf-syntax-ns#"
   xmlns:svg="http://www.w3.org/2000/svg"
   xmlns="http://www.w3.org/2000/svg"
   xml:space="preserve"
   enable-background="new 0 0 143.15 26.582"
   viewBox="0 0 25.000001 24.999999"
   height="25"
   width="25"
   y="0px"
   x="0px"
   id="Capa_1"
   version="1.1"><metadata
     id="metadata40"><rdf:RDF><cc:Work
         rdf:about=""><dc:format>image/svg+xml</dc:format><dc:type
           rdf:resource="http://purl.org/dc/dcmitype/StillImage" /><dc:title></dc:title></cc:Work></rdf:RDF></metadata><defs
     id="defs38" /><g
     transform="translate(0,-1.5820008)"
     id="GUIDES" /><g
     transform="translate(0,-1.5820008)"
     id="g4"><g
       transform="translate(0.42800075,0.63249964)"
       id="g28"><path
         style="fill:#003366"
         id="path30"
         d="m 17.091,16.994 c -0.305,-0.599 -0.664,-1.201 -1.083,-1.816 -0.301,-0.441 -0.624,-0.868 -0.962,-1.289 -0.136,-0.17 -0.08,-0.384 0.025,-0.488 0.104,-0.107 0.209,-0.212 0.312,-0.318 1.44,-1.471 2.932,-2.989 4.074,-4.632 C 20.672,6.705 21.346,5.049 21.516,3.345 21.533,3.172 21.454,2.99 21.317,2.885 21.226,2.817 21.116,2.78 21.006,2.78 c -0.063,0 -0.125,0.011 -0.184,0.034 -1.108,0.424 -2.234,0.744 -3.261,0.984 -0.209,0.049 -0.378,0.204 -0.448,0.391 -0.749,2.051 -2.66,4.002 -4.664,6.047 -0.082,0.076 -0.194,0.177 -0.378,0.177 -0.182,0 -0.294,-0.097 -0.376,-0.177 C 9.691,8.19 7.78,6.245 7.033,4.196 6.962,4.01 6.792,3.853 6.584,3.805 5.555,3.566 4.43,3.217 3.323,2.794 3.263,2.771 3.201,2.759 3.139,2.759 3.028,2.759 2.918,2.795 2.829,2.864 2.687,2.972 2.612,3.146 2.63,3.323 2.8,5.027 3.472,6.704 4.688,8.45 c 1.143,1.643 2.632,3.161 4.073,4.632 2.656,2.706 5.164,5.264 5.383,8.229 0.02,0.268 0.243,0.476 0.511,0.476 l 3.12,0 c 0.141,0 0.276,-0.057 0.372,-0.159 0.097,-0.103 0.148,-0.238 0.141,-0.38 -0.026,-0.557 -0.108,-1.117 -0.24,-1.679 l 0.002,0 c -0.005,-0.017 -0.008,-0.034 -0.008,-0.052 0,-0.112 0.089,-0.207 0.205,-0.207 0.01,0 0.019,0.002 0.028,0.003 l 0,0 c 2.547,0.374 4.157,0.968 4.159,1.624 0,0 0,0 0,0.002 0,0.618 -1.447,1.55 -3.8,2.234 l -0.001,0 c -0.208,0.06 -0.362,0.249 -0.362,0.473 0,0.273 0.226,0.494 0.503,0.494 0.038,0 0.075,-0.004 0.111,-0.012 3.164,-0.733 5.259,-1.962 5.259,-3.349 0,-1.65 -2.834,-3.121 -7.053,-3.785 z" /><path
         style="fill:#003366"
         id="path32"
         d="M 8.725,15.386 C 8.661,15.321 8.534,15.232 8.362,15.232 8.129,15.232 7.99,15.38 7.939,15.46 7.599,15.979 7.301,16.489 7.044,16.996 2.829,17.661 0,19.131 0,20.779 c 0,1.388 2.082,2.614 5.25,3.347 0,0 0.003,0 0.005,0 0.037,0.008 0.075,0.014 0.115,0.014 0.278,0 0.502,-0.221 0.502,-0.494 0,-0.222 -0.152,-0.41 -0.361,-0.47 L 5.51,23.173 c -2.353,-0.685 -3.8,-1.616 -3.8,-2.234 0,-0.002 0,-0.002 0,-0.002 0.002,-0.655 1.608,-1.249 4.148,-1.622 0.009,-0.002 0.017,-0.003 0.026,-0.003 0.118,0 0.207,0.096 0.207,0.21 0,0.018 -0.003,0.034 -0.007,0.05 l 0.003,0.003 c -0.132,0.559 -0.212,1.116 -0.239,1.672 -0.006,0.139 0.044,0.277 0.142,0.381 0.097,0.101 0.233,0.159 0.372,0.159 l 3.12,0 c 0.267,0 0.494,-0.21 0.513,-0.478 0.067,-0.912 0.354,-1.826 0.87,-2.789 0.18,-0.332 0.041,-0.644 -0.063,-0.777 -0.512,-0.668 -1.141,-1.38 -2.077,-2.357 z" /><path
         style="fill:#003366"
         id="path34"
         d="m 11.713,7.681 c 0.123,0.12 0.262,0.143 0.359,0.143 l 0,0 c 0.097,0 0.237,-0.023 0.36,-0.143 1.099,-1.068 1.692,-2.316 1.82,-2.663 0.018,-0.052 0.038,-0.108 0.038,-0.189 0,-0.276 -0.23,-0.476 -0.472,-0.476 -0.199,0 -0.765,0.06 -1.743,0.06 l -0.006,0 c -0.977,0 -1.544,-0.06 -1.743,-0.06 -0.242,0 -0.472,0.199 -0.472,0.476 0,0.081 0.019,0.138 0.038,0.189 0.13,0.346 0.721,1.594 1.821,2.663 z" /></g></g></svg>