<?xml version="1.0" encoding="UTF-8" standalone="no"?>
<svg
   xmlns:dc="http://purl.org/dc/elements/1.1/"
   xmlns:cc="http://creativecommons.org/ns#"
   xmlns:rdf="http://www.w3.org/1999/02/22-rdf-syntax-ns#"
   xmlns:svg="http://www.w3.org/2000/svg"
   xmlns="http://www.w3.org/2000/svg"
   id="svg4"
   version="1.1"
   preserveAspectRatio="xMinYMin meet"
   viewBox="0 0 256 204.79586"
   height="2000"
   width="2500">
  <metadata
     id="metadata10">
    <rdf:RDF>
      <cc:Work
         rdf:about="">
        <dc:format>image/svg+xml</dc:format>
        <dc:type
           rdf:resource="http://purl.org/dc/dcmitype/StillImage" />
        <dc:title></dc:title>
      </cc:Work>
    </rdf:RDF>
  </metadata>
  <defs
     id="defs8" />
  <path
     id="path2"
     d="M 238.371,181.346 H 18.395 C 8.431,181.346 0,172.916 0,162.951 V 41.849 C 0,31.885 8.431,23.454 18.395,23.454 h 219.21 c 9.964,0 18.395,8.431 18.395,18.395 v 121.102 c 0,9.964 -7.665,18.395 -17.629,18.395 z M 18.395,35.717 c -3.066,0 -6.132,3.066 -6.132,6.132 v 121.102 c 0,3.832 3.066,6.132 6.132,6.132 h 219.21 c 3.832,0 6.132,-3.066 6.132,-6.132 V 41.849 c 0,-3.832 -3.066,-6.132 -6.132,-6.132 z M 36.79,144.556 V 60.244 h 24.527 l 24.527,30.66 24.527,-30.66 h 24.527 v 84.312 H 110.371 V 96.268 l -24.527,30.66 -24.527,-30.66 v 48.288 z m 154.06,0 -36.79,-40.623 h 24.527 V 60.244 h 24.527 v 42.923 h 24.527 l -36.79,41.389 z" />
</svg>
